<?xml version="1.0" encoding="utf-8"?>
<!-- Generator: Adobe Illustrator 24.2.3, SVG Export Plug-In . SVG Version: 6.00 Build 0)  -->
<svg version="1.1" id="Layer_1" xmlns="http://www.w3.org/2000/svg" xmlns:xlink="http://www.w3.org/1999/xlink" x="0px" y="0px"
	 viewBox="0 0 595.3 595.3" style="enable-background:new 0 0 595.3 595.3;" xml:space="preserve">
<style type="text/css">
	.st0{fill:none;}
	.st1{fill:#FEF4DC;}
	.st2{fill:#ECB067;}
	.st3{display:none;fill:#FEF4DC;}
	.st4{fill:url(#froggy_x5F_pattern6);}
</style>
<pattern  y="-123.3" width="611.8" height="589.5" patternUnits="userSpaceOnUse" id="froggy_x5F_pattern6" viewBox="185.4 -770.7 611.8 589.5" style="overflow:visible;">
	<g>
		<rect x="185.4" y="-770.7" class="st0" width="611.8" height="589.5"/>
		<g>
			
				<image style="overflow:visible;" width="50" height="50" xlink:href="../hiragana_froggy1.png"  transform="matrix(3.8809 0 0 3.8809 779.8857 -194.0467)">
			</image>
		</g>
		<g>
			
				<image style="overflow:visible;" width="50" height="50" xlink:href="../hiragana_froggy1.png"  transform="matrix(3.8809 0 0 3.8809 168.0646 -194.0467)">
			</image>
			
				<image style="overflow:visible;" width="50" height="50" xlink:href="../hiragana_froggy1.png"  transform="matrix(3.8809 0 0 3.8809 466.0802 -194.5432)">
			</image>
		</g>
		<g>
			
				<image style="overflow:visible;" width="50" height="50" xlink:href="../hiragana_froggy1.png"  transform="matrix(3.8809 0 0 3.8809 782.4892 -488.5029)">
			</image>
			
				<image style="overflow:visible;" width="50" height="50" xlink:href="../hiragana_froggy1.png"  transform="matrix(3.8809 0 0 3.8809 779.8857 -783.5486)">
			</image>
		</g>
		<g>
			<rect x="185.4" y="-770.7" class="st1" width="611.8" height="589.5"/>
			<g>
				<path class="st2" d="M250.6-561.5c1-1.3,1.8-2.6,2.3-3.8c0.2-0.4,0.3-0.8,0.3-1.2c0-0.9-0.6-1.5-1.9-1.5H247
					c0.2-0.4,0.3-0.8,0.5-1.2c0-0.1,0.1-0.3,0.1-0.4c0-0.5-0.3-0.8-0.9-0.9c-0.2,0-0.3-0.1-0.4-0.1c-0.5,0-0.9,0.2-1.1,0.7
					c-1.2,3.4-3.2,6.5-5.6,8.7c-0.3,0.3-0.5,0.6-0.5,0.9c0,0.3,0.1,0.6,0.4,0.8c0.3,0.3,0.5,0.4,0.8,0.4c0.3,0,0.7-0.2,0.9-0.4
					l0.1-0.1c-0.2,0.4-0.2,0.8-0.2,1.2v3.4c0,1.9,0.7,2.7,2.6,2.7h0.8c-0.2,5.5-1.7,7.8-4.6,9.6c-0.4,0.3-0.6,0.6-0.6,1
					c0,0.3,0.1,0.5,0.3,0.8c0.3,0.4,0.6,0.6,1,0.6c0.3,0,0.6-0.1,0.9-0.3c3.4-2.3,5.2-5.5,5.4-11.7h2.3v7.9c0,1.6,0.4,2.5,1.5,3
					c1.3,0.6,3.7,0.7,8.5,0.7c8.1,0,9.2-0.5,10.2-1.5c0.7-0.7,1-2.2,1.1-3.8c0,0,0,0,0-0.1c0-0.7-0.4-1.1-1.1-1.2
					c-0.1,0-0.2,0-0.2,0c-0.6,0-1.1,0.4-1.1,1c-0.1,1.2-0.3,2.1-0.7,2.5c-0.5,0.5-1.6,0.7-8,0.7c-7.5,0-7.7-0.3-7.7-1.8v-7.5h2
					c1.8,0,2.5-0.8,2.5-2.8v-4c0-1.9-0.8-2.7-2.5-2.7H250.6z M244.2-561.5c-0.5,0-1,0.1-1.5,0.4c1.2-1.4,2.2-2.9,3.1-4.6h4
					c0.3,0,0.5,0.1,0.5,0.2c0,0.1,0,0.2-0.1,0.4c-0.4,1-1.2,2.2-2.2,3.6H244.2z M247.4-554.2H244c-0.6,0-0.8-0.3-0.8-0.9v-3.4
					c0-0.6,0.2-0.9,0.8-0.9h3.4V-554.2z M249.5-554.2v-5.2h3.5c0.6,0,0.8,0.3,0.8,0.9v3.4c0,0.6-0.2,0.9-0.8,0.9H249.5z
					 M256.7-563.7c-0.6,0-0.9,0.5-0.9,1.2c0,0.7,0.3,1.2,0.9,1.2h3c-0.2,2.8-0.7,5.2-1.5,7.6c-1.1,3.3-2.5,5.3-4.4,7.1
					c-0.3,0.3-0.4,0.6-0.4,0.9s0.1,0.6,0.4,0.9c0.3,0.3,0.6,0.4,0.9,0.4c0.4,0,0.7-0.2,1-0.5c2-2.1,3.5-4.5,4.8-8
					c0.9-2.6,1.4-5.3,1.7-8.4h3.5c0.7,0,1,0.2,1,0.9c-0.1,5.6-0.7,9.9-1.2,11.7c-0.3,1.1-0.7,1.4-1.8,1.4c-0.7,0-1.4-0.1-1.9-0.3
					c-0.1,0-0.2,0-0.3,0c-0.4,0-0.8,0.3-0.9,0.9c0,0.1,0,0.3,0,0.4c0,0.5,0.3,0.9,0.8,1c0.8,0.2,1.7,0.3,2.8,0.3
					c2,0,3.2-0.7,3.8-2.7c0.6-2.3,1.2-6.4,1.3-13c0-1.9-0.9-2.8-2.9-2.8h-3.9c0.1-1.7,0.1-3.5,0.1-5.5c0-0.7-0.5-1-1.3-1
					c-0.8,0-1.2,0.3-1.2,1c0,2,0,3.8-0.1,5.5H256.7z"/>
				<path class="st2" d="M280.1-559.3c1.7,0,2.5-0.6,2.5-2.5v-4.6c0-2-0.8-2.7-2.7-2.7h-5.9c-0.6,0-1,0.5-1,1.2s0.4,1.2,1,1.2h5.2
					c0.6,0,0.9,0.2,0.9,0.8v3.6c0,0.7-0.3,0.9-0.9,0.9h-2.6c-1.6,0-2.2,0.5-2.5,2c-0.3,1.8-0.6,3.6-0.9,5.2c0,0.2-0.1,0.5-0.1,0.7
					c0,1.1,0.8,1.7,2.1,1.7h3.8c0.7,0,1,0.2,1,0.9c0,3-0.5,5.7-0.9,7.2c-0.3,1.1-0.9,1.3-2,1.3c-0.7,0-1.6-0.1-2.3-0.3
					c-0.1,0-0.2-0.1-0.4-0.1c-0.4,0-0.8,0.2-1,0.9c0,0.2-0.1,0.3-0.1,0.5c0,0.6,0.3,1,0.9,1.1c0.9,0.3,2.1,0.4,3.1,0.4
					c1.9,0,3.3-0.6,3.9-2.5c0.7-2.4,1.2-5.6,1.2-8.9c0-1.8-0.8-2.6-2.6-2.6h-3.3c-0.6,0-0.8-0.1-0.8-0.6c0-0.1,0-0.2,0.1-0.4
					c0.3-1.1,0.5-2.3,0.6-3.4c0.1-0.6,0.3-0.8,0.9-0.8H280.1z M294-561.5c1.8-0.2,3.7-0.4,5.5-0.6c0.4,0.6,0.8,1.2,1.2,1.8
					c0.2,0.3,0.5,0.5,0.9,0.5c0.3,0,0.5-0.1,0.8-0.2c0.4-0.3,0.6-0.6,0.6-1c0-0.2-0.1-0.4-0.2-0.6c-1.5-2.2-3.4-4.6-5.4-6.7
					c-0.3-0.2-0.5-0.4-0.9-0.4c-0.2,0-0.5,0.1-0.7,0.2c-0.3,0.2-0.5,0.5-0.5,0.8c0,0.2,0.1,0.5,0.3,0.6c0.9,1,1.8,2,2.5,3
					c-3,0.4-6,0.5-9,0.6c1.1-1.7,2.2-3.7,3.1-5.5c0.1-0.2,0.1-0.3,0.1-0.5c0-0.5-0.4-0.8-1-0.9c-0.2,0-0.3-0.1-0.5-0.1
					c-0.5,0-0.9,0.2-1.1,0.7c-0.8,2-2,4.3-3.3,6.3c-0.7,0-1.3,0-1.9,0s-1,0.5-1,1.1c0,0.8,0.4,1.2,1,1.2c2.3-0.1,4.7-0.2,7-0.4v3.1
					h-4.7c-1.7,0-2.5,0.7-2.5,2.5v4.4c0,1.8,0.8,2.5,2.5,2.5h4.7v5c-2.6,0.3-5.2,0.5-7.9,0.6c-0.6,0-1,0.5-1,1.1c0,0.1,0,0.1,0,0.2
					c0,0.7,0.5,1.2,1.1,1.2c0,0,0.1,0,0.1,0c5.7-0.4,11-1.1,15.9-2c0.5,0.8,0.9,1.6,1.3,2.3c0.2,0.4,0.5,0.6,0.9,0.6
					c0.2,0,0.4-0.1,0.6-0.2c0.5-0.3,0.8-0.6,0.8-1.1c0-0.2,0-0.3-0.1-0.5c-1.1-2.2-2.5-4.4-3.6-5.8c-0.3-0.4-0.7-0.6-1-0.6
					c-0.2,0-0.4,0.1-0.7,0.2c-0.4,0.2-0.6,0.5-0.6,0.9c0,0.2,0.1,0.5,0.3,0.8c0.3,0.4,0.6,0.9,1,1.5c-1.6,0.3-3.1,0.5-4.7,0.7v-4.7
					h5.2c1.7,0,2.5-0.7,2.5-2.5v-4.4c0-1.8-0.8-2.5-2.5-2.5H294V-561.5z M291.6-550.9h-4c-0.6,0-0.9-0.2-0.9-0.8v-3.5
					c0-0.6,0.3-0.8,0.9-0.8h4V-550.9z M294-550.9v-5.1h4.5c0.6,0,0.9,0.2,0.9,0.8v3.5c0,0.6-0.3,0.8-0.9,0.8H294z"/>
			</g>
			<g>
				<path class="st2" d="M406.4-409.5c1-1.3,1.8-2.6,2.3-3.8c0.2-0.4,0.3-0.8,0.3-1.2c0-0.9-0.6-1.5-1.9-1.5h-4.4
					c0.2-0.4,0.3-0.8,0.5-1.2c0-0.1,0.1-0.3,0.1-0.4c0-0.5-0.3-0.8-0.9-0.9c-0.2,0-0.3-0.1-0.4-0.1c-0.5,0-0.9,0.2-1.1,0.7
					c-1.2,3.4-3.2,6.5-5.6,8.7c-0.3,0.3-0.5,0.6-0.5,0.9c0,0.3,0.1,0.6,0.4,0.8c0.3,0.3,0.5,0.4,0.8,0.4c0.3,0,0.7-0.2,0.9-0.4
					l0.1-0.1c-0.2,0.4-0.2,0.8-0.2,1.2v3.4c0,1.9,0.7,2.7,2.6,2.7h0.8c-0.2,5.5-1.7,7.8-4.6,9.6c-0.4,0.3-0.6,0.6-0.6,1
					c0,0.3,0.1,0.5,0.3,0.8c0.3,0.4,0.6,0.6,1,0.6c0.3,0,0.6-0.1,0.9-0.3c3.4-2.3,5.2-5.5,5.4-11.7h2.3v7.9c0,1.6,0.4,2.5,1.5,3
					c1.3,0.6,3.7,0.7,8.5,0.7c8.1,0,9.2-0.5,10.2-1.5c0.7-0.7,1-2.2,1.1-3.8c0,0,0,0,0-0.1c0-0.7-0.4-1.1-1.1-1.2
					c-0.1,0-0.2,0-0.2,0c-0.6,0-1.1,0.4-1.1,1c-0.1,1.2-0.3,2.1-0.7,2.5c-0.5,0.5-1.6,0.7-8,0.7c-7.5,0-7.7-0.3-7.7-1.8v-7.5h2
					c1.8,0,2.5-0.8,2.5-2.8v-4c0-1.9-0.8-2.7-2.5-2.7H406.4z M400.1-409.5c-0.5,0-1,0.1-1.5,0.4c1.2-1.4,2.2-2.9,3.1-4.6h4
					c0.3,0,0.5,0.1,0.5,0.2c0,0.1,0,0.2-0.1,0.4c-0.4,1-1.2,2.2-2.2,3.6H400.1z M403.2-402.1h-3.4c-0.6,0-0.8-0.3-0.8-0.9v-3.4
					c0-0.6,0.2-0.9,0.8-0.9h3.4V-402.1z M405.3-402.1v-5.2h3.5c0.6,0,0.8,0.3,0.8,0.9v3.4c0,0.6-0.2,0.9-0.8,0.9H405.3z
					 M412.5-411.7c-0.6,0-0.9,0.5-0.9,1.2c0,0.7,0.3,1.2,0.9,1.2h3c-0.2,2.8-0.7,5.2-1.5,7.6c-1.1,3.3-2.5,5.3-4.4,7.1
					c-0.3,0.3-0.4,0.6-0.4,0.9s0.1,0.6,0.4,0.9c0.3,0.3,0.6,0.4,0.9,0.4c0.4,0,0.7-0.2,1-0.5c2-2.1,3.5-4.5,4.8-8
					c0.9-2.6,1.4-5.3,1.7-8.4h3.5c0.7,0,1,0.2,1,0.9c-0.1,5.6-0.7,9.9-1.2,11.7c-0.3,1.1-0.7,1.4-1.8,1.4c-0.7,0-1.4-0.1-1.9-0.3
					c-0.1,0-0.2,0-0.3,0c-0.4,0-0.8,0.3-0.9,0.9c0,0.1,0,0.3,0,0.4c0,0.5,0.3,0.9,0.8,1c0.8,0.2,1.7,0.3,2.8,0.3
					c2,0,3.2-0.7,3.8-2.7c0.6-2.3,1.2-6.4,1.3-13c0-1.9-0.9-2.8-2.9-2.8h-3.9c0.1-1.7,0.1-3.5,0.1-5.5c0-0.7-0.5-1-1.3-1
					c-0.8,0-1.2,0.3-1.2,1c0,2,0,3.8-0.1,5.5H412.5z"/>
				<path class="st2" d="M435.9-407.2c1.7,0,2.5-0.6,2.5-2.5v-4.6c0-2-0.8-2.7-2.7-2.7h-5.9c-0.6,0-1,0.5-1,1.2s0.4,1.2,1,1.2h5.2
					c0.6,0,0.9,0.2,0.9,0.8v3.6c0,0.7-0.3,0.9-0.9,0.9h-2.6c-1.6,0-2.2,0.5-2.5,2c-0.3,1.8-0.6,3.6-0.9,5.2c0,0.2-0.1,0.5-0.1,0.7
					c0,1.1,0.8,1.7,2.1,1.7h3.8c0.7,0,1,0.2,1,0.9c0,3-0.5,5.7-0.9,7.2c-0.3,1.1-0.9,1.3-2,1.3c-0.7,0-1.6-0.1-2.3-0.3
					c-0.1,0-0.2-0.1-0.4-0.1c-0.4,0-0.8,0.2-1,0.9c0,0.2-0.1,0.3-0.1,0.5c0,0.6,0.3,1,0.9,1.1c0.9,0.3,2.1,0.4,3.1,0.4
					c1.9,0,3.3-0.6,3.9-2.5c0.7-2.4,1.2-5.6,1.2-8.9c0-1.8-0.8-2.6-2.6-2.6h-3.3c-0.6,0-0.8-0.1-0.8-0.6c0-0.1,0-0.2,0.1-0.4
					c0.3-1.1,0.5-2.3,0.6-3.4c0.1-0.6,0.3-0.8,0.9-0.8H435.9z M449.8-409.5c1.8-0.2,3.7-0.4,5.5-0.6c0.4,0.6,0.8,1.2,1.2,1.8
					c0.2,0.3,0.5,0.5,0.9,0.5c0.3,0,0.5-0.1,0.8-0.2c0.4-0.3,0.6-0.6,0.6-1c0-0.2-0.1-0.4-0.2-0.6c-1.5-2.2-3.4-4.6-5.4-6.7
					c-0.3-0.2-0.5-0.4-0.9-0.4c-0.2,0-0.5,0.1-0.7,0.2c-0.3,0.2-0.5,0.5-0.5,0.8c0,0.2,0.1,0.5,0.3,0.6c0.9,1,1.8,2,2.5,3
					c-3,0.4-6,0.5-9,0.6c1.1-1.7,2.2-3.7,3.1-5.5c0.1-0.2,0.1-0.3,0.1-0.5c0-0.5-0.4-0.8-1-0.9c-0.2,0-0.3-0.1-0.5-0.1
					c-0.5,0-0.9,0.2-1.1,0.7c-0.8,2-2,4.3-3.3,6.3c-0.7,0-1.3,0-1.9,0s-1,0.5-1,1.1c0,0.8,0.4,1.2,1,1.2c2.3-0.1,4.7-0.2,7-0.4v3.1
					h-4.7c-1.7,0-2.5,0.7-2.5,2.5v4.4c0,1.8,0.8,2.5,2.5,2.5h4.7v5c-2.6,0.3-5.2,0.5-7.9,0.6c-0.6,0-1,0.5-1,1.1c0,0.1,0,0.1,0,0.2
					c0,0.7,0.5,1.2,1.1,1.2c0,0,0.1,0,0.1,0c5.7-0.4,11-1.1,15.9-2c0.5,0.8,0.9,1.6,1.3,2.3c0.2,0.4,0.5,0.6,0.9,0.6
					c0.2,0,0.4-0.1,0.6-0.2c0.5-0.3,0.8-0.6,0.8-1.1c0-0.2,0-0.3-0.1-0.5c-1.1-2.2-2.5-4.4-3.6-5.8c-0.3-0.4-0.7-0.6-1-0.6
					c-0.2,0-0.4,0.1-0.7,0.2c-0.4,0.2-0.6,0.5-0.6,0.9c0,0.2,0.1,0.5,0.3,0.8c0.3,0.4,0.6,0.9,1,1.5c-1.6,0.3-3.1,0.5-4.7,0.7v-4.7
					h5.2c1.7,0,2.5-0.7,2.5-2.5v-4.4c0-1.8-0.8-2.5-2.5-2.5h-5.2V-409.5z M447.4-398.9h-4c-0.6,0-0.9-0.2-0.9-0.8v-3.5
					c0-0.6,0.3-0.8,0.9-0.8h4V-398.9z M449.8-398.9v-5.1h4.5c0.6,0,0.9,0.2,0.9,0.8v3.5c0,0.6-0.3,0.8-0.9,0.8H449.8z"/>
			</g>
			<g>
				<path class="st2" d="M544.6-562c1-1.3,1.8-2.6,2.3-3.8c0.2-0.4,0.3-0.8,0.3-1.2c0-0.9-0.6-1.5-1.9-1.5H541
					c0.2-0.4,0.3-0.8,0.5-1.2c0-0.1,0.1-0.3,0.1-0.4c0-0.5-0.3-0.8-0.9-0.9c-0.2,0-0.3-0.1-0.4-0.1c-0.5,0-0.9,0.2-1.1,0.7
					c-1.2,3.4-3.2,6.5-5.6,8.7c-0.3,0.3-0.5,0.6-0.5,0.9c0,0.3,0.1,0.6,0.4,0.8c0.3,0.3,0.5,0.4,0.8,0.4c0.3,0,0.7-0.2,0.9-0.4
					l0.1-0.1c-0.2,0.4-0.2,0.8-0.2,1.2v3.4c0,1.9,0.7,2.7,2.6,2.7h0.8c-0.2,5.5-1.7,7.8-4.6,9.6c-0.4,0.3-0.6,0.6-0.6,1
					c0,0.3,0.1,0.5,0.3,0.8c0.3,0.4,0.6,0.6,1,0.6c0.3,0,0.6-0.1,0.9-0.3c3.4-2.3,5.2-5.5,5.4-11.7h2.3v7.9c0,1.6,0.4,2.5,1.5,3
					c1.3,0.6,3.7,0.7,8.5,0.7c8.1,0,9.2-0.5,10.2-1.5c0.7-0.7,1-2.2,1.1-3.8c0,0,0,0,0-0.1c0-0.7-0.4-1.1-1.1-1.2
					c-0.1,0-0.2,0-0.2,0c-0.6,0-1.1,0.4-1.1,1c-0.1,1.2-0.3,2.1-0.7,2.5c-0.5,0.5-1.6,0.7-8,0.7c-7.5,0-7.7-0.3-7.7-1.8v-7.5h2
					c1.8,0,2.5-0.8,2.5-2.8v-4c0-1.9-0.8-2.7-2.5-2.7H544.6z M538.3-562c-0.5,0-1,0.1-1.5,0.4c1.2-1.4,2.2-2.9,3.1-4.6h4
					c0.3,0,0.5,0.1,0.5,0.2c0,0.1,0,0.2-0.1,0.4c-0.4,1-1.2,2.2-2.2,3.6H538.3z M541.4-554.7H538c-0.6,0-0.8-0.3-0.8-0.9v-3.4
					c0-0.6,0.2-0.9,0.8-0.9h3.4V-554.7z M543.6-554.7v-5.2h3.5c0.6,0,0.8,0.3,0.8,0.9v3.4c0,0.6-0.2,0.9-0.8,0.9H543.6z
					 M550.8-564.2c-0.6,0-0.9,0.5-0.9,1.2c0,0.7,0.3,1.2,0.9,1.2h3c-0.2,2.8-0.7,5.2-1.5,7.6c-1.1,3.3-2.5,5.3-4.4,7.1
					c-0.3,0.3-0.4,0.6-0.4,0.9s0.1,0.6,0.4,0.9c0.3,0.3,0.6,0.4,0.9,0.4c0.4,0,0.7-0.2,1-0.5c2-2.1,3.5-4.5,4.8-8
					c0.9-2.6,1.4-5.3,1.7-8.4h3.5c0.7,0,1,0.2,1,0.9c-0.1,5.6-0.7,9.9-1.2,11.7c-0.3,1.1-0.7,1.4-1.8,1.4c-0.7,0-1.4-0.1-1.9-0.3
					c-0.1,0-0.2,0-0.3,0c-0.4,0-0.8,0.3-0.9,0.9c0,0.1,0,0.3,0,0.4c0,0.5,0.3,0.9,0.8,1c0.8,0.2,1.7,0.3,2.8,0.3
					c2,0,3.2-0.7,3.8-2.7c0.6-2.3,1.2-6.4,1.3-13c0-1.9-0.9-2.8-2.9-2.8h-3.9c0.1-1.7,0.1-3.5,0.1-5.5c0-0.7-0.5-1-1.3-1
					c-0.8,0-1.2,0.3-1.2,1c0,2,0,3.8-0.1,5.5H550.8z"/>
				<path class="st2" d="M574.2-559.7c1.7,0,2.5-0.6,2.5-2.5v-4.6c0-2-0.8-2.7-2.7-2.7h-5.9c-0.6,0-1,0.5-1,1.2s0.4,1.2,1,1.2h5.2
					c0.6,0,0.9,0.2,0.9,0.8v3.6c0,0.7-0.3,0.9-0.9,0.9h-2.6c-1.6,0-2.2,0.5-2.5,2c-0.3,1.8-0.6,3.6-0.9,5.2c0,0.2-0.1,0.5-0.1,0.7
					c0,1.1,0.8,1.7,2.1,1.7h3.8c0.7,0,1,0.2,1,0.9c0,3-0.5,5.7-0.9,7.2c-0.3,1.1-0.9,1.3-2,1.3c-0.7,0-1.6-0.1-2.3-0.3
					c-0.1,0-0.2-0.1-0.4-0.1c-0.4,0-0.8,0.2-1,0.9c0,0.2-0.1,0.3-0.1,0.5c0,0.6,0.3,1,0.9,1.1c0.9,0.3,2.1,0.4,3.1,0.4
					c1.9,0,3.3-0.6,3.9-2.5c0.7-2.4,1.2-5.6,1.2-8.9c0-1.8-0.8-2.6-2.6-2.6h-3.3c-0.6,0-0.8-0.1-0.8-0.6c0-0.1,0-0.2,0.1-0.4
					c0.3-1.1,0.5-2.3,0.6-3.4c0.1-0.6,0.3-0.8,0.9-0.8H574.2z M588-562c1.8-0.2,3.7-0.4,5.5-0.6c0.4,0.6,0.8,1.2,1.2,1.8
					c0.2,0.3,0.5,0.5,0.9,0.5c0.3,0,0.5-0.1,0.8-0.2c0.4-0.3,0.6-0.6,0.6-1c0-0.2-0.1-0.4-0.2-0.6c-1.5-2.2-3.4-4.6-5.4-6.7
					c-0.3-0.2-0.5-0.4-0.9-0.4c-0.2,0-0.5,0.1-0.7,0.2c-0.3,0.2-0.5,0.5-0.5,0.8c0,0.2,0.1,0.5,0.3,0.6c0.9,1,1.8,2,2.5,3
					c-3,0.4-6,0.5-9,0.6c1.1-1.7,2.2-3.7,3.1-5.5c0.1-0.2,0.1-0.3,0.1-0.5c0-0.5-0.4-0.8-1-0.9c-0.2,0-0.3-0.1-0.5-0.1
					c-0.5,0-0.9,0.2-1.1,0.7c-0.8,2-2,4.3-3.3,6.3c-0.7,0-1.3,0-1.9,0s-1,0.5-1,1.1c0,0.8,0.4,1.2,1,1.2c2.3-0.1,4.7-0.2,7-0.4v3.1
					h-4.7c-1.7,0-2.5,0.7-2.5,2.5v4.4c0,1.8,0.8,2.5,2.5,2.5h4.7v5c-2.6,0.3-5.2,0.5-7.9,0.6c-0.6,0-1,0.5-1,1.1c0,0.1,0,0.1,0,0.2
					c0,0.7,0.5,1.2,1.1,1.2c0,0,0.1,0,0.1,0c5.7-0.4,11-1.1,15.9-2c0.5,0.8,0.9,1.6,1.3,2.3c0.2,0.4,0.5,0.6,0.9,0.6
					c0.2,0,0.4-0.1,0.6-0.2c0.5-0.3,0.8-0.6,0.8-1.1c0-0.2,0-0.3-0.1-0.5c-1.1-2.2-2.5-4.4-3.6-5.8c-0.3-0.4-0.7-0.6-1-0.6
					c-0.2,0-0.4,0.1-0.7,0.2c-0.4,0.2-0.6,0.5-0.6,0.9c0,0.2,0.1,0.5,0.3,0.8c0.3,0.4,0.6,0.9,1,1.5c-1.6,0.3-3.1,0.5-4.7,0.7v-4.7
					h5.2c1.7,0,2.5-0.7,2.5-2.5v-4.4c0-1.8-0.8-2.5-2.5-2.5H588V-562z M585.7-551.4h-4c-0.6,0-0.9-0.2-0.9-0.8v-3.5
					c0-0.6,0.3-0.8,0.9-0.8h4V-551.4z M588-551.4v-5.1h4.5c0.6,0,0.9,0.2,0.9,0.8v3.5c0,0.6-0.3,0.8-0.9,0.8H588z"/>
			</g>
			<g>
				<path class="st2" d="M689.7-406.7c1-1.3,1.8-2.6,2.3-3.8c0.2-0.4,0.3-0.8,0.3-1.2c0-0.9-0.6-1.5-1.9-1.5h-4.4
					c0.2-0.4,0.3-0.8,0.5-1.2c0-0.1,0.1-0.3,0.1-0.4c0-0.5-0.3-0.8-0.9-0.9c-0.2,0-0.3-0.1-0.4-0.1c-0.5,0-0.9,0.2-1.1,0.7
					c-1.2,3.4-3.2,6.5-5.6,8.7c-0.3,0.3-0.5,0.6-0.5,0.9c0,0.3,0.1,0.6,0.4,0.8c0.3,0.3,0.5,0.4,0.8,0.4c0.3,0,0.7-0.2,0.9-0.4
					l0.1-0.1c-0.2,0.4-0.2,0.8-0.2,1.2v3.4c0,1.9,0.7,2.7,2.6,2.7h0.8c-0.2,5.5-1.7,7.8-4.6,9.6c-0.4,0.3-0.6,0.6-0.6,1
					c0,0.3,0.1,0.5,0.3,0.8c0.3,0.4,0.6,0.6,1,0.6c0.3,0,0.6-0.1,0.9-0.3c3.4-2.3,5.2-5.5,5.4-11.7h2.3v7.9c0,1.6,0.4,2.5,1.5,3
					c1.3,0.6,3.7,0.7,8.5,0.7c8.1,0,9.2-0.5,10.2-1.5c0.7-0.7,1-2.2,1.1-3.8c0,0,0,0,0-0.1c0-0.7-0.4-1.1-1.1-1.2
					c-0.1,0-0.2,0-0.2,0c-0.6,0-1.1,0.4-1.1,1c-0.1,1.2-0.3,2.1-0.7,2.5c-0.5,0.5-1.6,0.7-8,0.7c-7.5,0-7.7-0.3-7.7-1.8v-7.5h2
					c1.8,0,2.5-0.8,2.5-2.8v-4c0-1.9-0.8-2.7-2.5-2.7H689.7z M683.3-406.7c-0.5,0-1,0.1-1.5,0.4c1.2-1.4,2.2-2.9,3.1-4.6h4
					c0.3,0,0.5,0.1,0.5,0.2c0,0.1,0,0.2-0.1,0.4c-0.4,1-1.2,2.2-2.2,3.6H683.3z M686.5-399.4h-3.4c-0.6,0-0.8-0.3-0.8-0.9v-3.4
					c0-0.6,0.2-0.9,0.8-0.9h3.4V-399.4z M688.6-399.4v-5.2h3.5c0.6,0,0.8,0.3,0.8,0.9v3.4c0,0.6-0.2,0.9-0.8,0.9H688.6z
					 M695.8-408.9c-0.6,0-0.9,0.5-0.9,1.2c0,0.7,0.3,1.2,0.9,1.2h3c-0.2,2.8-0.7,5.2-1.5,7.6c-1.1,3.3-2.5,5.3-4.4,7.1
					c-0.3,0.3-0.4,0.6-0.4,0.9s0.1,0.6,0.4,0.9c0.3,0.3,0.6,0.4,0.9,0.4c0.4,0,0.7-0.2,1-0.5c2-2.1,3.5-4.5,4.8-8
					c0.9-2.6,1.4-5.3,1.7-8.4h3.5c0.7,0,1,0.2,1,0.9c-0.1,5.6-0.7,9.9-1.2,11.7c-0.3,1.1-0.7,1.4-1.8,1.4c-0.7,0-1.4-0.1-1.9-0.3
					c-0.1,0-0.2,0-0.3,0c-0.4,0-0.8,0.3-0.9,0.9c0,0.1,0,0.3,0,0.4c0,0.5,0.3,0.9,0.8,1c0.8,0.2,1.7,0.3,2.8,0.3
					c2,0,3.2-0.7,3.8-2.7c0.6-2.3,1.2-6.4,1.3-13c0-1.9-0.9-2.8-2.9-2.8h-3.9c0.1-1.7,0.1-3.5,0.1-5.5c0-0.7-0.5-1-1.3-1
					c-0.8,0-1.2,0.3-1.2,1c0,2,0,3.8-0.1,5.5H695.8z"/>
				<path class="st2" d="M719.2-404.5c1.7,0,2.5-0.6,2.5-2.5v-4.6c0-2-0.8-2.7-2.7-2.7h-5.9c-0.6,0-1,0.5-1,1.2s0.4,1.2,1,1.2h5.2
					c0.6,0,0.9,0.2,0.9,0.8v3.6c0,0.7-0.3,0.9-0.9,0.9h-2.6c-1.6,0-2.2,0.5-2.5,2c-0.3,1.8-0.6,3.6-0.9,5.2c0,0.2-0.1,0.5-0.1,0.7
					c0,1.1,0.8,1.7,2.1,1.7h3.8c0.7,0,1,0.2,1,0.9c0,3-0.5,5.7-0.9,7.2c-0.3,1.1-0.9,1.3-2,1.3c-0.7,0-1.6-0.1-2.3-0.3
					c-0.1,0-0.2-0.1-0.4-0.1c-0.4,0-0.8,0.2-1,0.9c0,0.2-0.1,0.3-0.1,0.5c0,0.6,0.3,1,0.9,1.1c0.9,0.3,2.1,0.4,3.1,0.4
					c1.9,0,3.3-0.6,3.9-2.5c0.7-2.4,1.2-5.6,1.2-8.9c0-1.8-0.8-2.6-2.6-2.6h-3.3c-0.6,0-0.8-0.1-0.8-0.6c0-0.1,0-0.2,0.1-0.4
					c0.3-1.1,0.5-2.3,0.6-3.4c0.1-0.6,0.3-0.8,0.9-0.8H719.2z M733.1-406.7c1.8-0.2,3.7-0.4,5.5-0.6c0.4,0.6,0.8,1.2,1.2,1.8
					c0.2,0.3,0.5,0.5,0.9,0.5c0.3,0,0.5-0.1,0.8-0.2c0.4-0.3,0.6-0.6,0.6-1c0-0.2-0.1-0.4-0.2-0.6c-1.5-2.2-3.4-4.6-5.4-6.7
					c-0.3-0.2-0.5-0.4-0.9-0.4c-0.2,0-0.5,0.1-0.7,0.2c-0.3,0.2-0.5,0.5-0.5,0.8c0,0.2,0.1,0.5,0.3,0.6c0.9,1,1.8,2,2.5,3
					c-3,0.4-6,0.5-9,0.6c1.1-1.7,2.2-3.7,3.1-5.5c0.1-0.2,0.1-0.3,0.1-0.5c0-0.5-0.4-0.8-1-0.9c-0.2,0-0.3-0.1-0.5-0.1
					c-0.5,0-0.9,0.2-1.1,0.7c-0.8,2-2,4.3-3.3,6.3c-0.7,0-1.3,0-1.9,0s-1,0.5-1,1.1c0,0.8,0.4,1.2,1,1.2c2.3-0.1,4.7-0.2,7-0.4v3.1
					H726c-1.7,0-2.5,0.7-2.5,2.5v4.4c0,1.8,0.8,2.5,2.5,2.5h4.7v5c-2.6,0.3-5.2,0.5-7.9,0.6c-0.6,0-1,0.5-1,1.1c0,0.1,0,0.1,0,0.2
					c0,0.7,0.5,1.2,1.1,1.2c0,0,0.1,0,0.1,0c5.7-0.4,11-1.1,15.9-2c0.5,0.8,0.9,1.6,1.3,2.3c0.2,0.4,0.5,0.6,0.9,0.6
					c0.2,0,0.4-0.1,0.6-0.2c0.5-0.3,0.8-0.6,0.8-1.1c0-0.2,0-0.3-0.1-0.5c-1.1-2.2-2.5-4.4-3.6-5.8c-0.3-0.4-0.7-0.6-1-0.6
					c-0.2,0-0.4,0.1-0.7,0.2c-0.4,0.2-0.6,0.5-0.6,0.9c0,0.2,0.1,0.5,0.3,0.8c0.3,0.4,0.6,0.9,1,1.5c-1.6,0.3-3.1,0.5-4.7,0.7v-4.7
					h5.2c1.7,0,2.5-0.7,2.5-2.5v-4.4c0-1.8-0.8-2.5-2.5-2.5h-5.2V-406.7z M730.7-396.1h-4c-0.6,0-0.9-0.2-0.9-0.8v-3.5
					c0-0.6,0.3-0.8,0.9-0.8h4V-396.1z M733.1-396.1v-5.1h4.5c0.6,0,0.9,0.2,0.9,0.8v3.5c0,0.6-0.3,0.8-0.9,0.8H733.1z"/>
			</g>
			
				<image style="overflow:visible;" width="50" height="50" xlink:href="../hiragana_froggy1.png"  transform="matrix(3.8809 0 0 3.8809 316.2363 -638.5935)">
			</image>
			
				<image style="overflow:visible;" width="50" height="50" xlink:href="../hiragana_froggy1.png"  transform="matrix(3.8809 0 0 3.8809 603.1572 -638.5935)">
			</image>
			<g>
				<path class="st2" d="M259.3-268.6c1-1.3,1.8-2.6,2.3-3.8c0.2-0.4,0.3-0.8,0.3-1.2c0-0.9-0.6-1.5-1.9-1.5h-4.4
					c0.2-0.4,0.3-0.8,0.5-1.2c0-0.1,0.1-0.3,0.1-0.4c0-0.5-0.3-0.8-0.9-0.9c-0.2,0-0.3-0.1-0.4-0.1c-0.5,0-0.9,0.2-1.1,0.7
					c-1.2,3.4-3.2,6.5-5.6,8.7c-0.3,0.3-0.5,0.6-0.5,0.9c0,0.3,0.1,0.6,0.4,0.8c0.3,0.3,0.5,0.4,0.8,0.4c0.3,0,0.7-0.2,0.9-0.4
					l0.1-0.1c-0.2,0.4-0.2,0.8-0.2,1.2v3.4c0,1.9,0.7,2.7,2.6,2.7h0.8c-0.2,5.5-1.7,7.8-4.6,9.6c-0.4,0.3-0.6,0.6-0.6,1
					c0,0.3,0.1,0.5,0.3,0.8c0.3,0.4,0.6,0.6,1,0.6c0.3,0,0.6-0.1,0.9-0.3c3.4-2.3,5.2-5.5,5.4-11.7h2.3v7.9c0,1.6,0.4,2.5,1.5,3
					c1.3,0.6,3.7,0.7,8.5,0.7c8.1,0,9.2-0.5,10.2-1.5c0.7-0.7,1-2.2,1.1-3.8c0,0,0,0,0-0.1c0-0.7-0.4-1.1-1.1-1.2
					c-0.1,0-0.2,0-0.2,0c-0.6,0-1.1,0.4-1.1,1c-0.1,1.2-0.3,2.1-0.7,2.5c-0.5,0.5-1.6,0.7-8,0.7c-7.5,0-7.7-0.3-7.7-1.8v-7.5h2
					c1.8,0,2.5-0.8,2.5-2.8v-4c0-1.9-0.8-2.7-2.5-2.7H259.3z M252.9-268.6c-0.5,0-1,0.1-1.5,0.4c1.2-1.4,2.2-2.9,3.1-4.6h4
					c0.3,0,0.5,0.1,0.5,0.2c0,0.1,0,0.2-0.1,0.4c-0.4,1-1.2,2.2-2.2,3.6H252.9z M256-261.2h-3.4c-0.6,0-0.8-0.3-0.8-0.9v-3.4
					c0-0.6,0.2-0.9,0.8-0.9h3.4V-261.2z M258.2-261.2v-5.2h3.5c0.6,0,0.8,0.3,0.8,0.9v3.4c0,0.6-0.2,0.9-0.8,0.9H258.2z
					 M265.4-270.7c-0.6,0-0.9,0.5-0.9,1.2c0,0.7,0.3,1.2,0.9,1.2h3c-0.2,2.8-0.7,5.2-1.5,7.6c-1.1,3.3-2.5,5.3-4.4,7.1
					c-0.3,0.3-0.4,0.6-0.4,0.9s0.1,0.6,0.4,0.9c0.3,0.3,0.6,0.4,0.9,0.4c0.4,0,0.7-0.2,1-0.5c2-2.1,3.5-4.5,4.8-8
					c0.9-2.6,1.4-5.3,1.7-8.4h3.5c0.7,0,1,0.2,1,0.9c-0.1,5.6-0.7,9.9-1.2,11.7c-0.3,1.1-0.7,1.4-1.8,1.4c-0.7,0-1.4-0.1-1.9-0.3
					c-0.1,0-0.2,0-0.3,0c-0.4,0-0.8,0.3-0.9,0.9c0,0.1,0,0.3,0,0.4c0,0.5,0.3,0.9,0.8,1c0.8,0.2,1.7,0.3,2.8,0.3
					c2,0,3.2-0.7,3.8-2.7c0.6-2.3,1.2-6.4,1.3-13c0-1.9-0.9-2.8-2.9-2.8H271c0.1-1.7,0.1-3.5,0.1-5.5c0-0.7-0.5-1-1.3-1
					c-0.8,0-1.2,0.3-1.2,1c0,2,0,3.8-0.1,5.5H265.4z"/>
				<path class="st2" d="M288.8-266.3c1.7,0,2.5-0.6,2.5-2.5v-4.6c0-2-0.8-2.7-2.7-2.7h-5.9c-0.6,0-1,0.5-1,1.2s0.4,1.2,1,1.2h5.2
					c0.6,0,0.9,0.2,0.9,0.8v3.6c0,0.7-0.3,0.9-0.9,0.9h-2.6c-1.6,0-2.2,0.5-2.5,2c-0.3,1.8-0.6,3.6-0.9,5.2c0,0.2-0.1,0.5-0.1,0.7
					c0,1.1,0.8,1.7,2.1,1.7h3.8c0.7,0,1,0.2,1,0.9c0,3-0.5,5.7-0.9,7.2c-0.3,1.1-0.9,1.3-2,1.3c-0.7,0-1.6-0.1-2.3-0.3
					c-0.1,0-0.2-0.1-0.4-0.1c-0.4,0-0.8,0.2-1,0.9c0,0.2-0.1,0.3-0.1,0.5c0,0.6,0.3,1,0.9,1.1c0.9,0.3,2.1,0.4,3.1,0.4
					c1.9,0,3.3-0.6,3.9-2.5c0.7-2.4,1.2-5.6,1.2-8.9c0-1.8-0.8-2.6-2.6-2.6h-3.3c-0.6,0-0.8-0.1-0.8-0.6c0-0.1,0-0.2,0.1-0.4
					c0.3-1.1,0.5-2.3,0.6-3.4c0.1-0.6,0.3-0.8,0.9-0.8H288.8z M302.6-268.5c1.8-0.2,3.7-0.4,5.5-0.6c0.4,0.6,0.8,1.2,1.2,1.8
					c0.2,0.3,0.5,0.5,0.9,0.5c0.3,0,0.5-0.1,0.8-0.2c0.4-0.3,0.6-0.6,0.6-1c0-0.2-0.1-0.4-0.2-0.6c-1.5-2.2-3.4-4.6-5.4-6.7
					c-0.3-0.2-0.5-0.4-0.9-0.4c-0.2,0-0.5,0.1-0.7,0.2c-0.3,0.2-0.5,0.5-0.5,0.8c0,0.2,0.1,0.5,0.3,0.6c0.9,1,1.8,2,2.5,3
					c-3,0.4-6,0.5-9,0.6c1.1-1.7,2.2-3.7,3.1-5.5c0.1-0.2,0.1-0.3,0.1-0.5c0-0.5-0.4-0.8-1-0.9c-0.2,0-0.3-0.1-0.5-0.1
					c-0.5,0-0.9,0.2-1.1,0.7c-0.8,2-2,4.3-3.3,6.3c-0.7,0-1.3,0-1.9,0s-1,0.5-1,1.1c0,0.8,0.4,1.2,1,1.2c2.3-0.1,4.7-0.2,7-0.4v3.1
					h-4.7c-1.7,0-2.5,0.7-2.5,2.5v4.4c0,1.8,0.8,2.5,2.5,2.5h4.7v5c-2.6,0.3-5.2,0.5-7.9,0.6c-0.6,0-1,0.5-1,1.1c0,0.1,0,0.1,0,0.2
					c0,0.7,0.5,1.2,1.1,1.2c0,0,0.1,0,0.1,0c5.7-0.4,11-1.1,15.9-2c0.5,0.8,0.9,1.6,1.3,2.3c0.2,0.4,0.5,0.6,0.9,0.6
					c0.2,0,0.4-0.1,0.6-0.2c0.5-0.3,0.8-0.6,0.8-1.1c0-0.2,0-0.3-0.1-0.5c-1.1-2.2-2.5-4.4-3.6-5.8c-0.3-0.4-0.7-0.6-1-0.6
					c-0.2,0-0.4,0.1-0.7,0.2c-0.4,0.2-0.6,0.5-0.6,0.9c0,0.2,0.1,0.5,0.3,0.8c0.3,0.4,0.6,0.9,1,1.5c-1.6,0.3-3.1,0.5-4.7,0.7v-4.7
					h5.2c1.7,0,2.5-0.7,2.5-2.5v-4.4c0-1.8-0.8-2.5-2.5-2.5h-5.2V-268.5z M300.3-258h-4c-0.6,0-0.9-0.2-0.9-0.8v-3.5
					c0-0.6,0.3-0.8,0.9-0.8h4V-258z M302.6-258v-5.1h4.5c0.6,0,0.9,0.2,0.9,0.8v3.5c0,0.6-0.3,0.8-0.9,0.8H302.6z"/>
			</g>
			<g>
				<path class="st2" d="M553.3-269.1c1-1.3,1.8-2.6,2.3-3.8c0.2-0.4,0.3-0.8,0.3-1.2c0-0.9-0.6-1.5-1.9-1.5h-4.4
					c0.2-0.4,0.3-0.8,0.5-1.2c0-0.1,0.1-0.3,0.1-0.4c0-0.5-0.3-0.8-0.9-0.9c-0.2,0-0.3-0.1-0.4-0.1c-0.5,0-0.9,0.2-1.1,0.7
					c-1.2,3.4-3.2,6.5-5.6,8.7c-0.3,0.3-0.5,0.6-0.5,0.9c0,0.3,0.1,0.6,0.4,0.8c0.3,0.3,0.5,0.4,0.8,0.4c0.3,0,0.7-0.2,0.9-0.4
					l0.1-0.1c-0.2,0.4-0.2,0.8-0.2,1.2v3.4c0,1.9,0.7,2.7,2.6,2.7h0.8c-0.2,5.5-1.7,7.8-4.6,9.6c-0.4,0.3-0.6,0.6-0.6,1
					c0,0.3,0.1,0.5,0.3,0.8c0.3,0.4,0.6,0.6,1,0.6c0.3,0,0.6-0.1,0.9-0.3c3.4-2.3,5.2-5.5,5.4-11.7h2.3v7.9c0,1.6,0.4,2.5,1.5,3
					c1.3,0.6,3.7,0.7,8.5,0.7c8.1,0,9.2-0.5,10.2-1.5c0.7-0.7,1-2.2,1.1-3.8c0,0,0,0,0-0.1c0-0.7-0.4-1.1-1.1-1.2
					c-0.1,0-0.2,0-0.2,0c-0.6,0-1.1,0.4-1.1,1c-0.1,1.2-0.3,2.1-0.7,2.5c-0.5,0.5-1.6,0.7-8,0.7c-7.5,0-7.7-0.3-7.7-1.8v-7.5h2
					c1.8,0,2.5-0.8,2.5-2.8v-4c0-1.9-0.8-2.7-2.5-2.7H553.3z M547-269.1c-0.5,0-1,0.1-1.5,0.4c1.2-1.4,2.2-2.9,3.1-4.6h4
					c0.3,0,0.5,0.1,0.5,0.2c0,0.1,0,0.2-0.1,0.4c-0.4,1-1.2,2.2-2.2,3.6H547z M550.1-261.7h-3.4c-0.6,0-0.8-0.3-0.8-0.9v-3.4
					c0-0.6,0.2-0.9,0.8-0.9h3.4V-261.7z M552.3-261.7v-5.2h3.5c0.6,0,0.8,0.3,0.8,0.9v3.4c0,0.6-0.2,0.9-0.8,0.9H552.3z
					 M559.4-271.2c-0.6,0-0.9,0.5-0.9,1.2c0,0.7,0.3,1.2,0.9,1.2h3c-0.2,2.8-0.7,5.2-1.5,7.6c-1.1,3.3-2.5,5.3-4.4,7.1
					c-0.3,0.3-0.4,0.6-0.4,0.9s0.1,0.6,0.4,0.9c0.3,0.3,0.6,0.4,0.9,0.4c0.4,0,0.7-0.2,1-0.5c2-2.1,3.5-4.5,4.8-8
					c0.9-2.6,1.4-5.3,1.7-8.4h3.5c0.7,0,1,0.2,1,0.9c-0.1,5.6-0.7,9.9-1.2,11.7c-0.3,1.1-0.7,1.4-1.8,1.4c-0.7,0-1.4-0.1-1.9-0.3
					c-0.1,0-0.2,0-0.3,0c-0.4,0-0.8,0.3-0.9,0.9c0,0.1,0,0.3,0,0.4c0,0.5,0.3,0.9,0.8,1c0.8,0.2,1.7,0.3,2.8,0.3
					c2,0,3.2-0.7,3.8-2.7c0.6-2.3,1.2-6.4,1.3-13c0-1.9-0.9-2.8-2.9-2.8h-3.9c0.1-1.7,0.1-3.5,0.1-5.5c0-0.7-0.5-1-1.3-1
					c-0.8,0-1.2,0.3-1.2,1c0,2,0,3.8-0.1,5.5H559.4z"/>
				<path class="st2" d="M582.8-266.8c1.7,0,2.5-0.6,2.5-2.5v-4.6c0-2-0.8-2.7-2.7-2.7h-5.9c-0.6,0-1,0.5-1,1.2s0.4,1.2,1,1.2h5.2
					c0.6,0,0.9,0.2,0.9,0.8v3.6c0,0.7-0.3,0.9-0.9,0.9h-2.6c-1.6,0-2.2,0.5-2.5,2c-0.3,1.8-0.6,3.6-0.9,5.2c0,0.2-0.1,0.5-0.1,0.7
					c0,1.1,0.8,1.7,2.1,1.7h3.8c0.7,0,1,0.2,1,0.9c0,3-0.5,5.7-0.9,7.2c-0.3,1.1-0.9,1.3-2,1.3c-0.7,0-1.6-0.1-2.3-0.3
					c-0.1,0-0.2-0.1-0.4-0.1c-0.4,0-0.8,0.2-1,0.9c0,0.2-0.1,0.3-0.1,0.5c0,0.6,0.3,1,0.9,1.1c0.9,0.3,2.1,0.4,3.1,0.4
					c1.9,0,3.3-0.6,3.9-2.5c0.7-2.4,1.2-5.6,1.2-8.9c0-1.8-0.8-2.6-2.6-2.6h-3.3c-0.6,0-0.8-0.1-0.8-0.6c0-0.1,0-0.2,0.1-0.4
					c0.3-1.1,0.5-2.3,0.6-3.4c0.1-0.6,0.3-0.8,0.9-0.8H582.8z M596.7-269c1.8-0.2,3.7-0.4,5.5-0.6c0.4,0.6,0.8,1.2,1.2,1.8
					c0.2,0.3,0.5,0.5,0.9,0.5c0.3,0,0.5-0.1,0.8-0.2c0.4-0.3,0.6-0.6,0.6-1c0-0.2-0.1-0.4-0.2-0.6c-1.5-2.2-3.4-4.6-5.4-6.7
					c-0.3-0.2-0.5-0.4-0.9-0.4c-0.2,0-0.5,0.1-0.7,0.2c-0.3,0.2-0.5,0.5-0.5,0.8c0,0.2,0.1,0.5,0.3,0.6c0.9,1,1.8,2,2.5,3
					c-3,0.4-6,0.5-9,0.6c1.1-1.7,2.2-3.7,3.1-5.5c0.1-0.2,0.1-0.3,0.1-0.5c0-0.5-0.4-0.8-1-0.9c-0.2,0-0.3-0.1-0.5-0.1
					c-0.5,0-0.9,0.2-1.1,0.7c-0.8,2-2,4.3-3.3,6.3c-0.7,0-1.3,0-1.9,0s-1,0.5-1,1.1c0,0.8,0.4,1.2,1,1.2c2.3-0.1,4.7-0.2,7-0.4v3.1
					h-4.7c-1.7,0-2.5,0.7-2.5,2.5v4.4c0,1.8,0.8,2.5,2.5,2.5h4.7v5c-2.6,0.3-5.2,0.5-7.9,0.6c-0.6,0-1,0.5-1,1.1c0,0.1,0,0.1,0,0.2
					c0,0.7,0.5,1.2,1.1,1.2c0,0,0.1,0,0.1,0c5.7-0.4,11-1.1,15.9-2c0.5,0.8,0.9,1.6,1.3,2.3c0.2,0.4,0.5,0.6,0.9,0.6
					c0.2,0,0.4-0.1,0.6-0.2c0.5-0.3,0.8-0.6,0.8-1.1c0-0.2,0-0.3-0.1-0.5c-1.1-2.2-2.5-4.4-3.6-5.8c-0.3-0.4-0.7-0.6-1-0.6
					c-0.2,0-0.4,0.1-0.7,0.2c-0.4,0.2-0.6,0.5-0.6,0.9c0,0.2,0.1,0.5,0.3,0.8c0.3,0.4,0.6,0.9,1,1.5c-1.6,0.3-3.1,0.5-4.7,0.7v-4.7
					h5.2c1.7,0,2.5-0.7,2.5-2.5v-4.4c0-1.8-0.8-2.5-2.5-2.5h-5.2V-269z M594.3-258.5h-4c-0.6,0-0.9-0.2-0.9-0.8v-3.5
					c0-0.6,0.3-0.8,0.9-0.8h4V-258.5z M596.7-258.5v-5.1h4.5c0.6,0,0.9,0.2,0.9,0.8v3.5c0,0.6-0.3,0.8-0.9,0.8H596.7z"/>
			</g>
			
				<image style="overflow:visible;" width="50" height="50" xlink:href="../hiragana_froggy1.png"  transform="matrix(3.8809 0 0 3.8809 324.9003 -345.6192)">
			</image>
			
				<image style="overflow:visible;" width="50" height="50" xlink:href="../hiragana_froggy1.png"  transform="matrix(3.8809 0 0 3.8809 611.8212 -345.6192)">
			</image>
			
				<image style="overflow:visible;" width="50" height="50" xlink:href="../hiragana_froggy1.png"  transform="matrix(3.8809 0 0 3.8809 170.6681 -488.5029)">
			</image>
			
				<image style="overflow:visible;" width="50" height="50" xlink:href="../hiragana_froggy1.png"  transform="matrix(3.8809 0 0 3.8809 468.6837 -488.9995)">
			</image>
			<g>
				<path class="st2" d="M403.8-704.6c1-1.3,1.8-2.6,2.3-3.8c0.2-0.4,0.3-0.8,0.3-1.2c0-0.9-0.6-1.5-1.9-1.5h-4.4
					c0.2-0.4,0.3-0.8,0.5-1.2c0-0.1,0.1-0.3,0.1-0.4c0-0.5-0.3-0.8-0.9-0.9c-0.2,0-0.3-0.1-0.4-0.1c-0.5,0-0.9,0.2-1.1,0.7
					c-1.2,3.4-3.2,6.5-5.6,8.7c-0.3,0.3-0.5,0.6-0.5,0.9c0,0.3,0.1,0.6,0.4,0.8c0.3,0.3,0.5,0.4,0.8,0.4c0.3,0,0.7-0.2,0.9-0.4
					l0.1-0.1c-0.2,0.4-0.2,0.8-0.2,1.2v3.4c0,1.9,0.7,2.7,2.6,2.7h0.8c-0.2,5.5-1.7,7.8-4.6,9.6c-0.4,0.3-0.6,0.6-0.6,1
					c0,0.3,0.1,0.5,0.3,0.8c0.3,0.4,0.6,0.6,1,0.6c0.3,0,0.6-0.1,0.9-0.3c3.4-2.3,5.2-5.5,5.4-11.7h2.3v7.9c0,1.6,0.4,2.5,1.5,3
					c1.3,0.6,3.7,0.7,8.5,0.7c8.1,0,9.2-0.5,10.2-1.5c0.7-0.7,1-2.2,1.1-3.8c0,0,0,0,0-0.1c0-0.7-0.4-1.1-1.1-1.2
					c-0.1,0-0.2,0-0.2,0c-0.6,0-1.1,0.4-1.1,1c-0.1,1.2-0.3,2.1-0.7,2.5c-0.5,0.5-1.6,0.7-8,0.7c-7.5,0-7.7-0.3-7.7-1.8v-7.5h2
					c1.8,0,2.5-0.8,2.5-2.8v-4c0-1.9-0.8-2.7-2.5-2.7H403.8z M397.5-704.6c-0.5,0-1,0.1-1.5,0.4c1.2-1.4,2.2-2.9,3.1-4.6h4
					c0.3,0,0.5,0.1,0.5,0.2c0,0.1,0,0.2-0.1,0.4c-0.4,1-1.2,2.2-2.2,3.6H397.5z M400.6-697.2h-3.4c-0.6,0-0.8-0.3-0.8-0.9v-3.4
					c0-0.6,0.2-0.9,0.8-0.9h3.4V-697.2z M402.7-697.2v-5.2h3.5c0.6,0,0.8,0.3,0.8,0.9v3.4c0,0.6-0.2,0.9-0.8,0.9H402.7z
					 M409.9-706.7c-0.6,0-0.9,0.5-0.9,1.2c0,0.7,0.3,1.2,0.9,1.2h3c-0.2,2.8-0.7,5.2-1.5,7.6c-1.1,3.3-2.5,5.3-4.4,7.1
					c-0.3,0.3-0.4,0.6-0.4,0.9s0.1,0.6,0.4,0.9c0.3,0.3,0.6,0.4,0.9,0.4c0.4,0,0.7-0.2,1-0.5c2-2.1,3.5-4.5,4.8-8
					c0.9-2.6,1.4-5.3,1.7-8.4h3.5c0.7,0,1,0.2,1,0.9c-0.1,5.6-0.7,9.9-1.2,11.7c-0.3,1.1-0.7,1.4-1.8,1.4c-0.7,0-1.4-0.1-1.9-0.3
					c-0.1,0-0.2,0-0.3,0c-0.4,0-0.8,0.3-0.9,0.9c0,0.1,0,0.3,0,0.4c0,0.5,0.3,0.9,0.8,1c0.8,0.2,1.7,0.3,2.8,0.3
					c2,0,3.2-0.7,3.8-2.7c0.6-2.3,1.2-6.4,1.3-13c0-1.9-0.9-2.8-2.9-2.8h-3.9c0.1-1.7,0.1-3.5,0.1-5.5c0-0.7-0.5-1-1.3-1
					c-0.8,0-1.2,0.3-1.2,1c0,2,0,3.8-0.1,5.5H409.9z"/>
				<path class="st2" d="M433.3-702.3c1.7,0,2.5-0.6,2.5-2.5v-4.6c0-2-0.8-2.7-2.7-2.7h-5.9c-0.6,0-1,0.5-1,1.2s0.4,1.2,1,1.2h5.2
					c0.6,0,0.9,0.2,0.9,0.8v3.6c0,0.7-0.3,0.9-0.9,0.9h-2.6c-1.6,0-2.2,0.5-2.5,2c-0.3,1.8-0.6,3.6-0.9,5.2c0,0.2-0.1,0.5-0.1,0.7
					c0,1.1,0.8,1.7,2.1,1.7h3.8c0.7,0,1,0.2,1,0.9c0,3-0.5,5.7-0.9,7.2c-0.3,1.1-0.9,1.3-2,1.3c-0.7,0-1.6-0.1-2.3-0.3
					c-0.1,0-0.2-0.1-0.4-0.1c-0.4,0-0.8,0.2-1,0.9c0,0.2-0.1,0.3-0.1,0.5c0,0.6,0.3,1,0.9,1.1c0.9,0.3,2.1,0.4,3.1,0.4
					c1.9,0,3.3-0.6,3.9-2.5c0.7-2.4,1.2-5.6,1.2-8.9c0-1.8-0.8-2.6-2.6-2.6h-3.3c-0.6,0-0.8-0.1-0.8-0.6c0-0.1,0-0.2,0.1-0.4
					c0.3-1.1,0.5-2.3,0.6-3.4c0.1-0.6,0.3-0.8,0.9-0.8H433.3z M447.2-704.5c1.8-0.2,3.7-0.4,5.5-0.6c0.4,0.6,0.8,1.2,1.2,1.8
					c0.2,0.3,0.5,0.5,0.9,0.5c0.3,0,0.5-0.1,0.8-0.2c0.4-0.3,0.6-0.6,0.6-1c0-0.2-0.1-0.4-0.2-0.6c-1.5-2.2-3.4-4.6-5.4-6.7
					c-0.3-0.2-0.5-0.4-0.9-0.4c-0.2,0-0.5,0.1-0.7,0.2c-0.3,0.2-0.5,0.5-0.5,0.8c0,0.2,0.1,0.5,0.3,0.6c0.9,1,1.8,2,2.5,3
					c-3,0.4-6,0.5-9,0.6c1.1-1.7,2.2-3.7,3.1-5.5c0.1-0.2,0.1-0.3,0.1-0.5c0-0.5-0.4-0.8-1-0.9c-0.2,0-0.3-0.1-0.5-0.1
					c-0.5,0-0.9,0.2-1.1,0.7c-0.8,2-2,4.3-3.3,6.3c-0.7,0-1.3,0-1.9,0s-1,0.5-1,1.1c0,0.8,0.4,1.2,1,1.2c2.3-0.1,4.7-0.2,7-0.4v3.1
					h-4.7c-1.7,0-2.5,0.7-2.5,2.5v4.4c0,1.8,0.8,2.5,2.5,2.5h4.7v5c-2.6,0.3-5.2,0.5-7.9,0.6c-0.6,0-1,0.5-1,1.1c0,0.1,0,0.1,0,0.2
					c0,0.7,0.5,1.2,1.1,1.2c0,0,0.1,0,0.1,0c5.7-0.4,11-1.1,15.9-2c0.5,0.8,0.9,1.6,1.3,2.3c0.2,0.4,0.5,0.6,0.9,0.6
					c0.2,0,0.4-0.1,0.6-0.2c0.5-0.3,0.8-0.6,0.8-1.1c0-0.2,0-0.3-0.1-0.5c-1.1-2.2-2.5-4.4-3.6-5.8c-0.3-0.4-0.7-0.6-1-0.6
					c-0.2,0-0.4,0.1-0.7,0.2c-0.4,0.2-0.6,0.5-0.6,0.9c0,0.2,0.1,0.5,0.3,0.8c0.3,0.4,0.6,0.9,1,1.5c-1.6,0.3-3.1,0.5-4.7,0.7v-4.7
					h5.2c1.7,0,2.5-0.7,2.5-2.5v-4.4c0-1.8-0.8-2.5-2.5-2.5h-5.2V-704.5z M444.8-694h-4c-0.6,0-0.9-0.2-0.9-0.8v-3.5
					c0-0.6,0.3-0.8,0.9-0.8h4V-694z M447.2-694v-5.1h4.5c0.6,0,0.9,0.2,0.9,0.8v3.5c0,0.6-0.3,0.8-0.9,0.8H447.2z"/>
			</g>
			<g>
				<path class="st2" d="M687.1-701.8c1-1.3,1.8-2.6,2.3-3.8c0.2-0.4,0.3-0.8,0.3-1.2c0-0.9-0.6-1.5-1.9-1.5h-4.4
					c0.2-0.4,0.3-0.8,0.5-1.2c0-0.1,0.1-0.3,0.1-0.4c0-0.5-0.3-0.8-0.9-0.9c-0.2,0-0.3-0.1-0.4-0.1c-0.5,0-0.9,0.2-1.1,0.7
					c-1.2,3.4-3.2,6.5-5.6,8.7c-0.3,0.3-0.5,0.6-0.5,0.9c0,0.3,0.1,0.6,0.4,0.8c0.3,0.3,0.5,0.4,0.8,0.4c0.3,0,0.7-0.2,0.9-0.4
					l0.1-0.1c-0.2,0.4-0.2,0.8-0.2,1.2v3.4c0,1.9,0.7,2.7,2.6,2.7h0.8c-0.2,5.5-1.7,7.8-4.6,9.6c-0.4,0.3-0.6,0.6-0.6,1
					c0,0.3,0.1,0.5,0.3,0.8c0.3,0.4,0.6,0.6,1,0.6c0.3,0,0.6-0.1,0.9-0.3c3.4-2.3,5.2-5.5,5.4-11.7h2.3v7.9c0,1.6,0.4,2.5,1.5,3
					c1.3,0.6,3.7,0.7,8.5,0.7c8.1,0,9.2-0.5,10.2-1.5c0.7-0.7,1-2.2,1.1-3.8c0,0,0,0,0-0.1c0-0.7-0.4-1.1-1.1-1.2
					c-0.1,0-0.2,0-0.2,0c-0.6,0-1.1,0.4-1.1,1c-0.1,1.2-0.3,2.1-0.7,2.5c-0.5,0.5-1.6,0.7-8,0.7c-7.5,0-7.7-0.3-7.7-1.8v-7.5h2
					c1.8,0,2.5-0.8,2.5-2.8v-4c0-1.9-0.8-2.7-2.5-2.7H687.1z M680.7-701.8c-0.5,0-1,0.1-1.5,0.4c1.2-1.4,2.2-2.9,3.1-4.6h4
					c0.3,0,0.5,0.1,0.5,0.2c0,0.1,0,0.2-0.1,0.4c-0.4,1-1.2,2.2-2.2,3.6H680.7z M683.8-694.4h-3.4c-0.6,0-0.8-0.3-0.8-0.9v-3.4
					c0-0.6,0.2-0.9,0.8-0.9h3.4V-694.4z M686-694.4v-5.2h3.5c0.6,0,0.8,0.3,0.8,0.9v3.4c0,0.6-0.2,0.9-0.8,0.9H686z M693.2-704
					c-0.6,0-0.9,0.5-0.9,1.2c0,0.7,0.3,1.2,0.9,1.2h3c-0.2,2.8-0.7,5.2-1.5,7.6c-1.1,3.3-2.5,5.3-4.4,7.1c-0.3,0.3-0.4,0.6-0.4,0.9
					s0.1,0.6,0.4,0.9c0.3,0.3,0.6,0.4,0.9,0.4c0.4,0,0.7-0.2,1-0.5c2-2.1,3.5-4.5,4.8-8c0.9-2.6,1.4-5.3,1.7-8.4h3.5
					c0.7,0,1,0.2,1,0.9c-0.1,5.6-0.7,9.9-1.2,11.7c-0.3,1.1-0.7,1.4-1.8,1.4c-0.7,0-1.4-0.1-1.9-0.3c-0.1,0-0.2,0-0.3,0
					c-0.4,0-0.8,0.3-0.9,0.9c0,0.1,0,0.3,0,0.4c0,0.5,0.3,0.9,0.8,1c0.8,0.2,1.7,0.3,2.8,0.3c2,0,3.2-0.7,3.8-2.7
					c0.6-2.3,1.2-6.4,1.3-13c0-1.9-0.9-2.8-2.9-2.8h-3.9c0.1-1.7,0.1-3.5,0.1-5.5c0-0.7-0.5-1-1.3-1c-0.8,0-1.2,0.3-1.2,1
					c0,2,0,3.8-0.1,5.5H693.2z"/>
				<path class="st2" d="M716.6-699.5c1.7,0,2.5-0.6,2.5-2.5v-4.6c0-2-0.8-2.7-2.7-2.7h-5.9c-0.6,0-1,0.5-1,1.2s0.4,1.2,1,1.2h5.2
					c0.6,0,0.9,0.2,0.9,0.8v3.6c0,0.7-0.3,0.9-0.9,0.9h-2.6c-1.6,0-2.2,0.5-2.5,2c-0.3,1.8-0.6,3.6-0.9,5.2c0,0.2-0.1,0.5-0.1,0.7
					c0,1.1,0.8,1.7,2.1,1.7h3.8c0.7,0,1,0.2,1,0.9c0,3-0.5,5.7-0.9,7.2c-0.3,1.1-0.9,1.3-2,1.3c-0.7,0-1.6-0.1-2.3-0.3
					c-0.1,0-0.2-0.1-0.4-0.1c-0.4,0-0.8,0.2-1,0.9c0,0.2-0.1,0.3-0.1,0.5c0,0.6,0.3,1,0.9,1.1c0.9,0.3,2.1,0.4,3.1,0.4
					c1.9,0,3.3-0.6,3.9-2.5c0.7-2.4,1.2-5.6,1.2-8.9c0-1.8-0.8-2.6-2.6-2.6H713c-0.6,0-0.8-0.1-0.8-0.6c0-0.1,0-0.2,0.1-0.4
					c0.3-1.1,0.5-2.3,0.6-3.4c0.1-0.6,0.3-0.8,0.9-0.8H716.6z M730.5-701.7c1.8-0.2,3.7-0.4,5.5-0.6c0.4,0.6,0.8,1.2,1.2,1.8
					c0.2,0.3,0.5,0.5,0.9,0.5c0.3,0,0.5-0.1,0.8-0.2c0.4-0.3,0.6-0.6,0.6-1c0-0.2-0.1-0.4-0.2-0.6c-1.5-2.2-3.4-4.6-5.4-6.7
					c-0.3-0.2-0.5-0.4-0.9-0.4c-0.2,0-0.5,0.1-0.7,0.2c-0.3,0.2-0.5,0.5-0.5,0.8c0,0.2,0.1,0.5,0.3,0.6c0.9,1,1.8,2,2.5,3
					c-3,0.4-6,0.5-9,0.6c1.1-1.7,2.2-3.7,3.1-5.5c0.1-0.2,0.1-0.3,0.1-0.5c0-0.5-0.4-0.8-1-0.9c-0.2,0-0.3-0.1-0.5-0.1
					c-0.5,0-0.9,0.2-1.1,0.7c-0.8,2-2,4.3-3.3,6.3c-0.7,0-1.3,0-1.9,0s-1,0.5-1,1.1c0,0.8,0.4,1.2,1,1.2c2.3-0.1,4.7-0.2,7-0.4v3.1
					h-4.7c-1.7,0-2.5,0.7-2.5,2.5v4.4c0,1.8,0.8,2.5,2.5,2.5h4.7v5c-2.6,0.3-5.2,0.5-7.9,0.6c-0.6,0-1,0.5-1,1.1c0,0.1,0,0.1,0,0.2
					c0,0.7,0.5,1.2,1.1,1.2c0,0,0.1,0,0.1,0c5.7-0.4,11-1.1,15.9-2c0.5,0.8,0.9,1.6,1.3,2.3c0.2,0.4,0.5,0.6,0.9,0.6
					c0.2,0,0.4-0.1,0.6-0.2c0.5-0.3,0.8-0.6,0.8-1.1c0-0.2,0-0.3-0.1-0.5c-1.1-2.2-2.5-4.4-3.6-5.8c-0.3-0.4-0.7-0.6-1-0.6
					c-0.2,0-0.4,0.1-0.7,0.2c-0.4,0.2-0.6,0.5-0.6,0.9c0,0.2,0.1,0.5,0.3,0.8c0.3,0.4,0.6,0.9,1,1.5c-1.6,0.3-3.1,0.5-4.7,0.7v-4.7
					h5.2c1.7,0,2.5-0.7,2.5-2.5v-4.4c0-1.8-0.8-2.5-2.5-2.5h-5.2V-701.7z M728.1-691.2h-4c-0.6,0-0.9-0.2-0.9-0.8v-3.5
					c0-0.6,0.3-0.8,0.9-0.8h4V-691.2z M730.5-691.2v-5.1h4.5c0.6,0,0.9,0.2,0.9,0.8v3.5c0,0.6-0.3,0.8-0.9,0.8H730.5z"/>
			</g>
			
				<image style="overflow:visible;" width="50" height="50" xlink:href="../hiragana_froggy1.png"  transform="matrix(3.8809 0 0 3.8809 168.0646 -783.5486)">
			</image>
			
				<image style="overflow:visible;" width="50" height="50" xlink:href="../hiragana_froggy1.png"  transform="matrix(3.8809 0 0 3.8809 466.0802 -784.0452)">
			</image>
		</g>
		<g>
			
				<image style="overflow:visible;" width="50" height="50" xlink:href="../hiragana_froggy1.png"  transform="matrix(3.8809 0 0 3.8809 0 -345.6192)">
			</image>
		</g>
		<g>
			
				<image style="overflow:visible;" width="50" height="50" xlink:href="../hiragana_froggy1.png"  transform="matrix(3.8809 0 0 3.8809 324.9003 -935.1212)">
			</image>
			
				<image style="overflow:visible;" width="50" height="50" xlink:href="../hiragana_froggy1.png"  transform="matrix(3.8809 0 0 3.8809 611.8212 -935.1212)">
			</image>
		</g>
		<g>
			
				<image style="overflow:visible;" width="50" height="50" xlink:href="../hiragana_froggy1.png"  transform="matrix(3.8809 0 0 3.8809 0 -935.1212)">
			</image>
		</g>
	</g>
</pattern>
<rect x="142.2" y="408.7" class="st3" width="349.8" height="252.4"/>
<rect x="43.4" y="154.9" class="st1" width="484.2" height="262.6"/>
<g>
	<path class="st2" d="M92.1,204.9c1.8,0,2.5,0.8,2.5,2.7v4c0,1.9-0.8,2.8-2.5,2.8h-2v7.5c0,1.6,0.2,1.8,7.7,1.8c6.4,0,7.5-0.2,8-0.7
		c0.4-0.4,0.7-1.3,0.7-2.5c0-0.7,0.5-1,1.1-1c0.1,0,0.2,0,0.2,0c0.7,0.1,1.1,0.5,1.1,1.2c0,0,0,0.1,0,0.1c-0.1,1.6-0.4,3.1-1.1,3.8
		c-0.9,1-2.1,1.5-10.2,1.5c-4.9,0-7.2-0.1-8.5-0.7c-1.2-0.5-1.5-1.4-1.5-3v-7.9h-2.3c-0.2,6.2-2.1,9.4-5.4,11.7
		c-0.3,0.2-0.6,0.3-0.9,0.3c-0.4,0-0.7-0.2-1-0.6c-0.2-0.2-0.3-0.5-0.3-0.8c0-0.4,0.2-0.8,0.6-1c2.9-1.8,4.4-4.1,4.6-9.6h-0.8
		c-1.8,0-2.6-0.8-2.6-2.7v-3.4c0-0.4,0.1-0.8,0.2-1.2l-0.1,0.1c-0.3,0.3-0.6,0.4-0.9,0.4c-0.3,0-0.6-0.1-0.8-0.4
		c-0.2-0.3-0.4-0.6-0.4-0.8c0-0.3,0.2-0.7,0.5-0.9c2.5-2.2,4.5-5.3,5.6-8.7c0.2-0.5,0.6-0.7,1.1-0.7c0.1,0,0.3,0,0.4,0.1
		c0.6,0.1,0.9,0.5,0.9,0.9c0,0.1,0,0.2-0.1,0.4c-0.2,0.4-0.3,0.8-0.5,1.2H90c1.3,0,1.9,0.6,1.9,1.5c0,0.3-0.1,0.7-0.3,1.2
		c-0.6,1.2-1.4,2.5-2.3,3.8H92.1z M86.6,204.9c1.1-1.4,1.8-2.6,2.2-3.6c0.1-0.2,0.1-0.3,0.1-0.4c0-0.2-0.2-0.2-0.5-0.2h-4
		c-0.9,1.6-1.9,3.1-3.1,4.6c0.5-0.2,1-0.4,1.5-0.4H86.6z M86,207.1h-3.4c-0.6,0-0.8,0.3-0.8,0.9v3.4c0,0.6,0.2,0.9,0.8,0.9H86V207.1
		z M91.7,212.3c0.6,0,0.8-0.3,0.8-0.9V208c0-0.6-0.2-0.9-0.8-0.9h-3.5v5.2H91.7z M98.5,202.8c0.1-1.7,0.1-3.5,0.1-5.5
		c0-0.7,0.5-1,1.2-1c0.8,0,1.3,0.3,1.3,1c0,2,0,3.8-0.1,5.5h3.9c2,0,2.9,0.9,2.9,2.8c-0.1,6.5-0.7,10.7-1.3,13
		c-0.5,2-1.7,2.7-3.8,2.7c-1.1,0-2-0.1-2.8-0.3c-0.5-0.1-0.8-0.5-0.8-1c0-0.1,0-0.3,0-0.4c0.1-0.5,0.5-0.9,0.9-0.9
		c0.1,0,0.2,0,0.3,0c0.5,0.1,1.3,0.3,1.9,0.3c1.1,0,1.5-0.3,1.8-1.4c0.5-1.8,1.1-6.1,1.2-11.7c0-0.7-0.3-0.9-1-0.9h-3.5
		c-0.3,3.1-0.8,5.7-1.7,8.4c-1.2,3.5-2.8,5.9-4.8,8c-0.3,0.3-0.7,0.5-1,0.5c-0.3,0-0.7-0.1-0.9-0.4c-0.2-0.3-0.4-0.6-0.4-0.9
		s0.2-0.7,0.4-0.9c1.9-1.7,3.3-3.8,4.4-7.1c0.8-2.3,1.2-4.8,1.5-7.6h-3c-0.6,0-0.9-0.5-0.9-1.2c0-0.7,0.3-1.2,0.9-1.2H98.5z"/>
	<path class="st2" d="M115.9,207.2c-0.6,0-0.8,0.2-0.9,0.8c-0.1,1-0.4,2.2-0.6,3.4c0,0.2-0.1,0.3-0.1,0.4c0,0.4,0.3,0.6,0.8,0.6h3.3
		c1.8,0,2.7,0.8,2.6,2.6c0,3.3-0.5,6.5-1.2,8.9c-0.6,1.9-1.9,2.5-3.9,2.5c-1,0-2.2-0.1-3.1-0.4c-0.5-0.1-0.9-0.5-0.9-1.1
		c0-0.1,0-0.3,0.1-0.5c0.2-0.6,0.6-0.9,1-0.9c0.1,0,0.3,0,0.4,0.1c0.7,0.2,1.6,0.3,2.3,0.3c1.1,0,1.7-0.2,2-1.3
		c0.4-1.5,0.9-4.2,0.9-7.2c0-0.7-0.3-0.9-1-0.9h-3.8c-1.3,0-2.1-0.6-2.1-1.7c0-0.2,0-0.4,0.1-0.7c0.4-1.7,0.6-3.5,0.9-5.2
		c0.3-1.5,0.9-2,2.5-2h2.6c0.6,0,0.9-0.2,0.9-0.9v-3.6c0-0.7-0.3-0.8-0.9-0.8h-5.2c-0.6,0-1-0.5-1-1.2s0.4-1.2,1-1.2h5.9
		c1.8,0,2.7,0.7,2.7,2.7v4.6c0,1.9-0.8,2.5-2.5,2.5H115.9z M132.6,208.3h5.2c1.7,0,2.5,0.7,2.5,2.5v4.4c0,1.8-0.8,2.5-2.5,2.5h-5.2
		v4.7c1.6-0.2,3.1-0.4,4.7-0.7c-0.3-0.5-0.7-1-1-1.5c-0.2-0.3-0.3-0.5-0.3-0.8c0-0.3,0.2-0.6,0.6-0.9c0.2-0.1,0.4-0.2,0.7-0.2
		c0.3,0,0.7,0.2,1,0.6c1.1,1.4,2.5,3.6,3.6,5.8c0.1,0.2,0.1,0.4,0.1,0.5c0,0.4-0.3,0.8-0.8,1.1c-0.2,0.1-0.4,0.2-0.6,0.2
		c-0.4,0-0.8-0.3-0.9-0.6c-0.4-0.8-0.8-1.6-1.3-2.3c-4.9,1-10.2,1.7-15.9,2c0,0-0.1,0-0.1,0c-0.6,0-1.1-0.4-1.1-1.2
		c0-0.1,0-0.1,0-0.2c0-0.7,0.4-1.1,1-1.1c2.6-0.1,5.3-0.3,7.9-0.6v-5h-4.7c-1.7,0-2.5-0.7-2.5-2.5v-4.4c0-1.8,0.8-2.5,2.5-2.5h4.7
		v-3.1c-2.3,0.2-4.8,0.3-7,0.4c-0.6,0-1-0.4-1-1.2c0-0.7,0.3-1.1,1-1.1s1.3,0,1.9,0c1.4-2.1,2.5-4.4,3.3-6.3
		c0.2-0.5,0.6-0.7,1.1-0.7c0.2,0,0.3,0,0.5,0.1c0.6,0.1,1,0.4,1,0.9c0,0.2,0,0.3-0.1,0.5c-0.9,1.8-2,3.8-3.1,5.5c3-0.1,6-0.3,9-0.6
		c-0.8-1-1.7-2-2.5-3c-0.2-0.2-0.3-0.4-0.3-0.6c0-0.3,0.1-0.6,0.5-0.8c0.2-0.2,0.5-0.2,0.7-0.2c0.3,0,0.6,0.1,0.9,0.4
		c2,2.1,3.9,4.5,5.4,6.7c0.1,0.2,0.2,0.4,0.2,0.6c0,0.4-0.2,0.7-0.6,1c-0.2,0.2-0.5,0.2-0.8,0.2c-0.4,0-0.7-0.2-0.9-0.5
		c-0.4-0.6-0.8-1.2-1.2-1.8c-1.8,0.3-3.6,0.4-5.5,0.6V208.3z M130.2,210.4h-4c-0.6,0-0.9,0.2-0.9,0.8v3.5c0,0.6,0.3,0.8,0.9,0.8h4
		V210.4z M137.1,215.5c0.6,0,0.9-0.2,0.9-0.8v-3.5c0-0.6-0.3-0.8-0.9-0.8h-4.5v5.1H137.1z"/>
</g>
<g>
	<path class="st2" d="M212.5,352.3c1.8,0,2.5,0.8,2.5,2.7v4c0,1.9-0.8,2.8-2.5,2.8h-2v7.5c0,1.6,0.2,1.8,7.7,1.8
		c6.4,0,7.5-0.2,8-0.7c0.4-0.4,0.7-1.3,0.7-2.5c0-0.7,0.5-1,1.1-1c0.1,0,0.2,0,0.2,0c0.7,0.1,1.1,0.5,1.1,1.2c0,0,0,0.1,0,0.1
		c-0.1,1.6-0.4,3.1-1.1,3.8c-0.9,1-2.1,1.5-10.2,1.5c-4.9,0-7.2-0.1-8.5-0.7c-1.2-0.5-1.5-1.4-1.5-3v-7.9h-2.3
		c-0.2,6.2-2.1,9.4-5.4,11.7c-0.3,0.2-0.6,0.3-0.9,0.3c-0.4,0-0.7-0.2-1-0.6c-0.2-0.2-0.3-0.5-0.3-0.8c0-0.4,0.2-0.8,0.6-1
		c2.9-1.8,4.4-4.1,4.6-9.6h-0.8c-1.8,0-2.6-0.8-2.6-2.7v-3.4c0-0.4,0.1-0.8,0.2-1.2l-0.1,0.1c-0.3,0.3-0.6,0.4-0.9,0.4
		c-0.3,0-0.6-0.1-0.8-0.4c-0.2-0.3-0.4-0.6-0.4-0.8c0-0.3,0.2-0.7,0.5-0.9c2.5-2.2,4.5-5.3,5.6-8.7c0.2-0.5,0.6-0.7,1.1-0.7
		c0.1,0,0.3,0,0.4,0.1c0.6,0.1,0.9,0.5,0.9,0.9c0,0.1,0,0.2-0.1,0.4c-0.2,0.4-0.3,0.8-0.5,1.2h4.4c1.3,0,1.9,0.6,1.9,1.5
		c0,0.3-0.1,0.7-0.3,1.2c-0.6,1.2-1.4,2.5-2.3,3.8H212.5z M207,352.3c1.1-1.4,1.8-2.6,2.2-3.6c0.1-0.2,0.1-0.3,0.1-0.4
		c0-0.2-0.2-0.2-0.5-0.2h-4c-0.9,1.6-1.9,3.1-3.1,4.6c0.5-0.2,1-0.4,1.5-0.4H207z M206.4,354.5H203c-0.6,0-0.8,0.3-0.8,0.9v3.4
		c0,0.6,0.2,0.9,0.8,0.9h3.4V354.5z M212,359.7c0.6,0,0.8-0.3,0.8-0.9v-3.4c0-0.6-0.2-0.9-0.8-0.9h-3.5v5.2H212z M218.9,350.2
		c0.1-1.7,0.1-3.5,0.1-5.5c0-0.7,0.5-1,1.2-1c0.8,0,1.3,0.3,1.3,1c0,2,0,3.8-0.1,5.5h3.9c2,0,2.9,0.9,2.9,2.8
		c-0.1,6.5-0.7,10.7-1.3,13c-0.5,2-1.7,2.7-3.8,2.7c-1.1,0-2-0.1-2.8-0.3c-0.5-0.1-0.8-0.5-0.8-1c0-0.1,0-0.3,0-0.4
		c0.1-0.5,0.5-0.9,0.9-0.9c0.1,0,0.2,0,0.3,0c0.5,0.1,1.3,0.3,1.9,0.3c1.1,0,1.5-0.3,1.8-1.4c0.5-1.8,1.1-6.1,1.2-11.7
		c0-0.7-0.3-0.9-1-0.9h-3.5c-0.3,3.1-0.8,5.7-1.7,8.4c-1.2,3.5-2.8,5.9-4.8,8c-0.3,0.3-0.7,0.5-1,0.5c-0.3,0-0.7-0.1-0.9-0.4
		c-0.2-0.3-0.4-0.6-0.4-0.9s0.2-0.7,0.4-0.9c1.9-1.7,3.3-3.8,4.4-7.1c0.8-2.3,1.2-4.8,1.5-7.6h-3c-0.6,0-0.9-0.5-0.9-1.2
		c0-0.7,0.3-1.2,0.9-1.2H218.9z"/>
	<path class="st2" d="M236.3,354.6c-0.6,0-0.8,0.2-0.9,0.8c-0.1,1-0.4,2.2-0.6,3.4c0,0.2-0.1,0.3-0.1,0.4c0,0.4,0.3,0.6,0.8,0.6h3.3
		c1.8,0,2.7,0.8,2.6,2.6c0,3.3-0.5,6.5-1.2,8.9c-0.6,1.9-1.9,2.5-3.9,2.5c-1,0-2.2-0.1-3.1-0.4c-0.5-0.1-0.9-0.5-0.9-1.1
		c0-0.1,0-0.3,0.1-0.5c0.2-0.6,0.6-0.9,1-0.9c0.1,0,0.3,0,0.4,0.1c0.7,0.2,1.6,0.3,2.3,0.3c1.1,0,1.7-0.2,2-1.3
		c0.4-1.5,0.9-4.2,0.9-7.2c0-0.7-0.3-0.9-1-0.9h-3.8c-1.3,0-2.1-0.6-2.1-1.7c0-0.2,0-0.4,0.1-0.7c0.4-1.7,0.6-3.5,0.9-5.2
		c0.3-1.5,0.9-2,2.5-2h2.6c0.6,0,0.9-0.2,0.9-0.9v-3.6c0-0.7-0.3-0.8-0.9-0.8h-5.2c-0.6,0-1-0.5-1-1.2s0.4-1.2,1-1.2h5.9
		c1.8,0,2.7,0.7,2.7,2.7v4.6c0,1.9-0.8,2.5-2.5,2.5H236.3z M253,355.6h5.2c1.7,0,2.5,0.7,2.5,2.5v4.4c0,1.8-0.8,2.5-2.5,2.5H253v4.7
		c1.6-0.2,3.1-0.4,4.7-0.7c-0.3-0.5-0.7-1-1-1.5c-0.2-0.3-0.3-0.5-0.3-0.8c0-0.3,0.2-0.6,0.6-0.9c0.2-0.1,0.4-0.2,0.7-0.2
		c0.3,0,0.7,0.2,1,0.6c1.1,1.4,2.5,3.6,3.6,5.8c0.1,0.2,0.1,0.4,0.1,0.5c0,0.4-0.3,0.8-0.8,1.1c-0.2,0.1-0.4,0.2-0.6,0.2
		c-0.4,0-0.8-0.3-0.9-0.6c-0.4-0.8-0.8-1.6-1.3-2.3c-4.9,1-10.2,1.7-15.9,2c0,0-0.1,0-0.1,0c-0.6,0-1.1-0.4-1.1-1.2
		c0-0.1,0-0.1,0-0.2c0-0.7,0.4-1.1,1-1.1c2.6-0.1,5.3-0.3,7.9-0.6v-5h-4.7c-1.7,0-2.5-0.7-2.5-2.5v-4.4c0-1.8,0.8-2.5,2.5-2.5h4.7
		v-3.1c-2.3,0.2-4.8,0.3-7,0.4c-0.6,0-1-0.4-1-1.2c0-0.7,0.3-1.1,1-1.1s1.3,0,1.9,0c1.4-2.1,2.5-4.4,3.3-6.3
		c0.2-0.5,0.6-0.7,1.1-0.7c0.2,0,0.3,0,0.5,0.1c0.6,0.1,1,0.4,1,0.9c0,0.2,0,0.3-0.1,0.5c-0.9,1.8-2,3.8-3.1,5.5c3-0.1,6-0.3,9-0.6
		c-0.8-1-1.7-2-2.5-3c-0.2-0.2-0.3-0.4-0.3-0.6c0-0.3,0.1-0.6,0.5-0.8c0.2-0.2,0.5-0.2,0.7-0.2c0.3,0,0.6,0.1,0.9,0.4
		c2,2.1,3.9,4.5,5.4,6.7c0.1,0.2,0.2,0.4,0.2,0.6c0,0.4-0.2,0.7-0.6,1c-0.2,0.2-0.5,0.2-0.8,0.2c-0.4,0-0.7-0.2-0.9-0.5
		c-0.4-0.6-0.8-1.2-1.2-1.8c-1.8,0.3-3.6,0.4-5.5,0.6V355.6z M250.6,357.8h-4c-0.6,0-0.9,0.2-0.9,0.8v3.5c0,0.6,0.3,0.8,0.9,0.8h4
		V357.8z M257.5,362.9c0.6,0,0.9-0.2,0.9-0.8v-3.5c0-0.6-0.3-0.8-0.9-0.8H253v5.1H257.5z"/>
</g>
<g>
	<path class="st2" d="M322.8,204.9c1.8,0,2.5,0.8,2.5,2.7v4c0,1.9-0.8,2.8-2.5,2.8h-2v7.5c0,1.6,0.2,1.8,7.7,1.8
		c6.4,0,7.5-0.2,8-0.7c0.4-0.4,0.7-1.3,0.7-2.5c0-0.7,0.5-1,1.1-1c0.1,0,0.2,0,0.2,0c0.7,0.1,1.1,0.5,1.1,1.2c0,0,0,0.1,0,0.1
		c-0.1,1.6-0.4,3.1-1.1,3.8c-0.9,1-2.1,1.5-10.2,1.5c-4.9,0-7.2-0.1-8.5-0.7c-1.2-0.5-1.5-1.4-1.5-3v-7.9h-2.3
		c-0.2,6.2-2.1,9.4-5.4,11.7c-0.3,0.2-0.6,0.3-0.9,0.3c-0.4,0-0.7-0.2-1-0.6c-0.2-0.2-0.3-0.5-0.3-0.8c0-0.4,0.2-0.8,0.6-1
		c2.9-1.8,4.4-4.1,4.6-9.6h-0.8c-1.8,0-2.6-0.8-2.6-2.7v-3.4c0-0.4,0.1-0.8,0.2-1.2l-0.1,0.1c-0.3,0.3-0.6,0.4-0.9,0.4
		c-0.3,0-0.6-0.1-0.8-0.4c-0.2-0.3-0.4-0.6-0.4-0.8c0-0.3,0.2-0.7,0.5-0.9c2.5-2.2,4.5-5.3,5.6-8.7c0.2-0.5,0.6-0.7,1.1-0.7
		c0.1,0,0.3,0,0.4,0.1c0.6,0.1,0.9,0.5,0.9,0.9c0,0.1,0,0.2-0.1,0.4c-0.2,0.4-0.3,0.8-0.5,1.2h4.4c1.3,0,1.9,0.6,1.9,1.5
		c0,0.3-0.1,0.7-0.3,1.2c-0.6,1.2-1.4,2.5-2.3,3.8H322.8z M317.3,204.9c1.1-1.4,1.8-2.6,2.2-3.6c0.1-0.2,0.1-0.3,0.1-0.4
		c0-0.2-0.2-0.2-0.5-0.2h-4c-0.9,1.6-1.9,3.1-3.1,4.6c0.5-0.2,1-0.4,1.5-0.4H317.3z M316.7,207.1h-3.4c-0.6,0-0.8,0.3-0.8,0.9v3.4
		c0,0.6,0.2,0.9,0.8,0.9h3.4V207.1z M322.3,212.3c0.6,0,0.8-0.3,0.8-0.9V208c0-0.6-0.2-0.9-0.8-0.9h-3.5v5.2H322.3z M329.2,202.8
		c0.1-1.7,0.1-3.5,0.1-5.5c0-0.7,0.5-1,1.2-1c0.8,0,1.3,0.3,1.3,1c0,2,0,3.8-0.1,5.5h3.9c2,0,2.9,0.9,2.9,2.8
		c-0.1,6.5-0.7,10.7-1.3,13c-0.5,2-1.7,2.7-3.8,2.7c-1.1,0-2-0.1-2.8-0.3c-0.5-0.1-0.8-0.5-0.8-1c0-0.1,0-0.3,0-0.4
		c0.1-0.5,0.5-0.9,0.9-0.9c0.1,0,0.2,0,0.3,0c0.5,0.1,1.3,0.3,1.9,0.3c1.1,0,1.5-0.3,1.8-1.4c0.5-1.8,1.1-6.1,1.2-11.7
		c0-0.7-0.3-0.9-1-0.9h-3.5c-0.3,3.1-0.8,5.7-1.7,8.4c-1.2,3.5-2.8,5.9-4.8,8c-0.3,0.3-0.7,0.5-1,0.5c-0.3,0-0.7-0.1-0.9-0.4
		c-0.2-0.3-0.4-0.6-0.4-0.9s0.2-0.7,0.4-0.9c1.9-1.7,3.3-3.8,4.4-7.1c0.8-2.3,1.2-4.8,1.5-7.6h-3c-0.6,0-0.9-0.5-0.9-1.2
		c0-0.7,0.3-1.2,0.9-1.2H329.2z"/>
	<path class="st2" d="M346.6,207.2c-0.6,0-0.8,0.2-0.9,0.8c-0.1,1-0.4,2.2-0.6,3.4c0,0.2-0.1,0.3-0.1,0.4c0,0.4,0.3,0.6,0.8,0.6h3.3
		c1.8,0,2.7,0.8,2.6,2.6c0,3.3-0.5,6.5-1.2,8.9c-0.6,1.9-1.9,2.5-3.9,2.5c-1,0-2.2-0.1-3.1-0.4c-0.5-0.1-0.9-0.5-0.9-1.1
		c0-0.1,0-0.3,0.1-0.5c0.2-0.6,0.6-0.9,1-0.9c0.1,0,0.3,0,0.4,0.1c0.7,0.2,1.6,0.3,2.3,0.3c1.1,0,1.7-0.2,2-1.3
		c0.4-1.5,0.9-4.2,0.9-7.2c0-0.7-0.3-0.9-1-0.9h-3.8c-1.3,0-2.1-0.6-2.1-1.7c0-0.2,0-0.4,0.1-0.7c0.4-1.7,0.6-3.5,0.9-5.2
		c0.3-1.5,0.9-2,2.5-2h2.6c0.6,0,0.9-0.2,0.9-0.9v-3.6c0-0.7-0.3-0.8-0.9-0.8h-5.2c-0.6,0-1-0.5-1-1.2s0.4-1.2,1-1.2h5.9
		c1.8,0,2.7,0.7,2.7,2.7v4.6c0,1.9-0.8,2.5-2.5,2.5H346.6z M363.3,208.3h5.2c1.7,0,2.5,0.7,2.5,2.5v4.4c0,1.8-0.8,2.5-2.5,2.5h-5.2
		v4.7c1.6-0.2,3.1-0.4,4.7-0.7c-0.3-0.5-0.7-1-1-1.5c-0.2-0.3-0.3-0.5-0.3-0.8c0-0.3,0.2-0.6,0.6-0.9c0.2-0.1,0.4-0.2,0.7-0.2
		c0.3,0,0.7,0.2,1,0.6c1.1,1.4,2.5,3.6,3.6,5.8c0.1,0.2,0.1,0.4,0.1,0.5c0,0.4-0.3,0.8-0.8,1.1c-0.2,0.1-0.4,0.2-0.6,0.2
		c-0.4,0-0.8-0.3-0.9-0.6c-0.4-0.8-0.8-1.6-1.3-2.3c-4.9,1-10.2,1.7-15.9,2c0,0-0.1,0-0.1,0c-0.6,0-1.1-0.4-1.1-1.2
		c0-0.1,0-0.1,0-0.2c0-0.7,0.4-1.1,1-1.1c2.6-0.1,5.3-0.3,7.9-0.6v-5h-4.7c-1.7,0-2.5-0.7-2.5-2.5v-4.4c0-1.8,0.8-2.5,2.5-2.5h4.7
		v-3.1c-2.3,0.2-4.8,0.3-7,0.4c-0.6,0-1-0.4-1-1.2c0-0.7,0.3-1.1,1-1.1s1.3,0,1.9,0c1.4-2.1,2.5-4.4,3.3-6.3
		c0.2-0.5,0.6-0.7,1.1-0.7c0.2,0,0.3,0,0.5,0.1c0.6,0.1,1,0.4,1,0.9c0,0.2,0,0.3-0.1,0.5c-0.9,1.8-2,3.8-3.1,5.5c3-0.1,6-0.3,9-0.6
		c-0.8-1-1.7-2-2.5-3c-0.2-0.2-0.3-0.4-0.3-0.6c0-0.3,0.1-0.6,0.5-0.8c0.2-0.2,0.5-0.2,0.7-0.2c0.3,0,0.6,0.1,0.9,0.4
		c2,2.1,3.9,4.5,5.4,6.7c0.1,0.2,0.2,0.4,0.2,0.6c0,0.4-0.2,0.7-0.6,1c-0.2,0.2-0.5,0.2-0.8,0.2c-0.4,0-0.7-0.2-0.9-0.5
		c-0.4-0.6-0.8-1.2-1.2-1.8c-1.8,0.3-3.6,0.4-5.5,0.6V208.3z M360.9,210.4h-4c-0.6,0-0.9,0.2-0.9,0.8v3.5c0,0.6,0.3,0.8,0.9,0.8h4
		V210.4z M367.8,215.5c0.6,0,0.9-0.2,0.9-0.8v-3.5c0-0.6-0.3-0.8-0.9-0.8h-4.5v5.1H367.8z"/>
</g>
<g>
	<path class="st2" d="M442.7,355.1c1.8,0,2.5,0.8,2.5,2.7v4c0,1.9-0.8,2.8-2.5,2.8h-2v7.5c0,1.6,0.2,1.8,7.7,1.8
		c6.4,0,7.5-0.2,8-0.7c0.4-0.4,0.7-1.3,0.7-2.5c0-0.7,0.5-1,1.1-1c0.1,0,0.2,0,0.2,0c0.7,0.1,1.1,0.5,1.1,1.2c0,0,0,0.1,0,0.1
		c-0.1,1.6-0.4,3.1-1.1,3.8c-0.9,1-2.1,1.5-10.2,1.5c-4.9,0-7.2-0.1-8.5-0.7c-1.2-0.5-1.5-1.4-1.5-3v-7.9H436
		c-0.2,6.2-2.1,9.4-5.4,11.7c-0.3,0.2-0.6,0.3-0.9,0.3c-0.4,0-0.7-0.2-1-0.6c-0.2-0.2-0.3-0.5-0.3-0.8c0-0.4,0.2-0.8,0.6-1
		c2.9-1.8,4.4-4.1,4.6-9.6h-0.8c-1.8,0-2.6-0.8-2.6-2.7v-3.4c0-0.4,0.1-0.8,0.2-1.2l-0.1,0.1c-0.3,0.3-0.6,0.4-0.9,0.4
		c-0.3,0-0.6-0.1-0.8-0.4c-0.2-0.3-0.4-0.6-0.4-0.8c0-0.3,0.2-0.7,0.5-0.9c2.5-2.2,4.5-5.3,5.6-8.7c0.2-0.5,0.6-0.7,1.1-0.7
		c0.1,0,0.3,0,0.4,0.1c0.6,0.1,0.9,0.5,0.9,0.9c0,0.1,0,0.2-0.1,0.4c-0.2,0.4-0.3,0.8-0.5,1.2h4.4c1.3,0,1.9,0.6,1.9,1.5
		c0,0.3-0.1,0.7-0.3,1.2c-0.6,1.2-1.4,2.5-2.3,3.8H442.7z M437.2,355.1c1.1-1.4,1.8-2.6,2.2-3.6c0.1-0.2,0.1-0.3,0.1-0.4
		c0-0.2-0.2-0.2-0.5-0.2h-4c-0.9,1.6-1.9,3.1-3.1,4.6c0.5-0.2,1-0.4,1.5-0.4H437.2z M436.6,357.3h-3.4c-0.6,0-0.8,0.3-0.8,0.9v3.4
		c0,0.6,0.2,0.9,0.8,0.9h3.4V357.3z M442.2,362.5c0.6,0,0.8-0.3,0.8-0.9v-3.4c0-0.6-0.2-0.9-0.8-0.9h-3.5v5.2H442.2z M449.1,352.9
		c0.1-1.7,0.1-3.5,0.1-5.5c0-0.7,0.5-1,1.2-1c0.8,0,1.3,0.3,1.3,1c0,2,0,3.8-0.1,5.5h3.9c2,0,2.9,0.9,2.9,2.8
		c-0.1,6.5-0.7,10.7-1.3,13c-0.5,2-1.7,2.7-3.8,2.7c-1.1,0-2-0.1-2.8-0.3c-0.5-0.1-0.8-0.5-0.8-1c0-0.1,0-0.3,0-0.4
		c0.1-0.5,0.5-0.9,0.9-0.9c0.1,0,0.2,0,0.3,0c0.5,0.1,1.3,0.3,1.9,0.3c1.1,0,1.5-0.3,1.8-1.4c0.5-1.8,1.1-6.1,1.2-11.7
		c0-0.7-0.3-0.9-1-0.9h-3.5c-0.3,3.1-0.8,5.7-1.7,8.4c-1.2,3.5-2.8,5.9-4.8,8c-0.3,0.3-0.7,0.5-1,0.5c-0.3,0-0.7-0.1-0.9-0.4
		c-0.2-0.3-0.4-0.6-0.4-0.9s0.2-0.7,0.4-0.9c1.9-1.7,3.3-3.8,4.4-7.1c0.8-2.3,1.2-4.8,1.5-7.6h-3c-0.6,0-0.9-0.5-0.9-1.2
		c0-0.7,0.3-1.2,0.9-1.2H449.1z"/>
	<path class="st2" d="M466.5,357.4c-0.6,0-0.8,0.2-0.9,0.8c-0.1,1-0.4,2.2-0.6,3.4c0,0.2-0.1,0.3-0.1,0.4c0,0.4,0.3,0.6,0.8,0.6h3.3
		c1.8,0,2.7,0.8,2.6,2.6c0,3.3-0.5,6.5-1.2,8.9c-0.6,1.9-1.9,2.5-3.9,2.5c-1,0-2.2-0.1-3.1-0.4c-0.5-0.1-0.9-0.5-0.9-1.1
		c0-0.1,0-0.3,0.1-0.5c0.2-0.6,0.6-0.9,1-0.9c0.1,0,0.3,0,0.4,0.1c0.7,0.2,1.6,0.3,2.3,0.3c1.1,0,1.7-0.2,2-1.3
		c0.4-1.5,0.9-4.2,0.9-7.2c0-0.7-0.3-0.9-1-0.9h-3.8c-1.3,0-2.1-0.6-2.1-1.7c0-0.2,0-0.4,0.1-0.7c0.4-1.7,0.6-3.5,0.9-5.2
		c0.3-1.5,0.9-2,2.5-2h2.6c0.6,0,0.9-0.2,0.9-0.9v-3.6c0-0.7-0.3-0.8-0.9-0.8h-5.2c-0.6,0-1-0.5-1-1.2s0.4-1.2,1-1.2h5.9
		c1.8,0,2.7,0.7,2.7,2.7v4.6c0,1.9-0.8,2.5-2.5,2.5H466.5z M483.2,358.4h5.2c1.7,0,2.5,0.7,2.5,2.5v4.4c0,1.8-0.8,2.5-2.5,2.5h-5.2
		v4.7c1.6-0.2,3.1-0.4,4.7-0.7c-0.3-0.5-0.7-1-1-1.5c-0.2-0.3-0.3-0.5-0.3-0.8c0-0.3,0.2-0.6,0.6-0.9c0.2-0.1,0.4-0.2,0.7-0.2
		c0.3,0,0.7,0.2,1,0.6c1.1,1.4,2.5,3.6,3.6,5.8c0.1,0.2,0.1,0.4,0.1,0.5c0,0.4-0.3,0.8-0.8,1.1c-0.2,0.1-0.4,0.2-0.6,0.2
		c-0.4,0-0.8-0.3-0.9-0.6c-0.4-0.8-0.8-1.6-1.3-2.3c-4.9,1-10.2,1.7-15.9,2c0,0-0.1,0-0.1,0c-0.6,0-1.1-0.4-1.1-1.2
		c0-0.1,0-0.1,0-0.2c0-0.7,0.4-1.1,1-1.1c2.6-0.1,5.3-0.3,7.9-0.6v-5h-4.7c-1.7,0-2.5-0.7-2.5-2.5v-4.4c0-1.8,0.8-2.5,2.5-2.5h4.7
		v-3.1c-2.3,0.2-4.8,0.3-7,0.4c-0.6,0-1-0.4-1-1.2c0-0.7,0.3-1.1,1-1.1s1.3,0,1.9,0c1.4-2.1,2.5-4.4,3.3-6.3
		c0.2-0.5,0.6-0.7,1.1-0.7c0.2,0,0.3,0,0.5,0.1c0.6,0.1,1,0.4,1,0.9c0,0.2,0,0.3-0.1,0.5c-0.9,1.8-2,3.8-3.1,5.5c3-0.1,6-0.3,9-0.6
		c-0.8-1-1.7-2-2.5-3c-0.2-0.2-0.3-0.4-0.3-0.6c0-0.3,0.1-0.6,0.5-0.8c0.2-0.2,0.5-0.2,0.7-0.2c0.3,0,0.6,0.1,0.9,0.4
		c2,2.1,3.9,4.5,5.4,6.7c0.1,0.2,0.2,0.4,0.2,0.6c0,0.4-0.2,0.7-0.6,1c-0.2,0.2-0.5,0.2-0.8,0.2c-0.4,0-0.7-0.2-0.9-0.5
		c-0.4-0.6-0.8-1.2-1.2-1.8c-1.8,0.3-3.6,0.4-5.5,0.6V358.4z M480.8,360.6h-4c-0.6,0-0.9,0.2-0.9,0.8v3.5c0,0.6,0.3,0.8,0.9,0.8h4
		V360.6z M487.7,365.7c0.6,0,0.9-0.2,0.9-0.8v-3.5c0-0.6-0.3-0.8-0.9-0.8h-4.5v5.1H487.7z"/>
</g>
<image style="overflow:visible;" width="50" height="50" xlink:href="../hiragana_froggy1.png"  transform="matrix(3.8809 0 0 3.8809 122.0341 128.3835)">
</image>
<image style="overflow:visible;" width="50" height="50" xlink:href="../hiragana_froggy1.png"  transform="matrix(3.8809 0 0 3.8809 355.8755 128.3835)">
</image>
<image style="overflow:visible;" width="50" height="50" xlink:href="../hiragana_froggy1.png"  transform="matrix(3.8809 0 0 3.8809 6.6895 272.8454)">
</image>
<image style="overflow:visible;" width="50" height="50" xlink:href="../hiragana_froggy1.png"  transform="matrix(3.8809 0 0 3.8809 241.3316 272.8454)">
</image>
<rect class="st4" width="595.3" height="595.3"/>
</svg>
